<svg width="200" height="200" viewBox="0 0 200 200" fill="none" xmlns="http://www.w3.org/2000/svg">
<path d="M180.024 3.74245V196.258C180.024 198.322 178.346 200 176.278 200H23.7223C21.6539 200 19.9759 198.322 19.9759 196.258V3.74245C19.9759 1.67807 21.6539 0 23.7223 0H176.278C178.346 0 180.024 1.67807 180.024 3.74245V3.74245Z" fill="#FCCD7F"/>
<path d="M180.024 195.734V196.258C180.024 198.322 178.346 200 176.278 200H175.755L156.708 180.954C155.529 179.775 155.529 177.863 156.708 176.684C157.887 175.505 159.799 175.505 160.974 176.684L180.024 195.734Z" fill="#F0B95F"/>
<path d="M49.7304 29.7545C49.1429 30.3421 48.3702 30.6398 47.5976 30.6398C46.825 30.6398 46.0523 30.3421 45.4648 29.7545L19.9759 4.26962V3.74245C19.9759 1.67807 21.6539 0 23.7223 0H24.2455L49.7304 25.4849C50.9095 26.664 50.9095 28.5755 49.7304 29.7545Z" fill="#F0B95F"/>
<path d="M180.024 3.74245V4.28571L154.165 30.1449C153.577 30.7324 152.805 31.0302 152.032 31.0302C151.26 31.0302 150.487 30.7324 149.899 30.1449C148.72 28.9658 148.72 27.0543 149.899 25.8753L175.775 0H176.278C178.346 0 180.024 1.67807 180.024 3.74245V3.74245Z" fill="#F0B95F"/>
<path d="M43.2918 180.954L24.2455 200H23.7223C21.6539 200 19.9759 198.322 19.9759 196.258V195.734L39.0262 176.684C40.2012 175.505 42.1127 175.505 43.2918 176.684C44.4708 177.863 44.4708 179.775 43.2918 180.954V180.954Z" fill="#F0B95F"/>
<path d="M180.024 3.74245V196.258C180.024 198.322 178.346 200 176.278 200H169.879C171.948 200 173.622 198.322 173.622 196.258V3.74245C173.622 1.67807 171.948 0 169.879 0H176.278C178.346 0 180.024 1.67807 180.024 3.74245V3.74245Z" fill="#F0B95F"/>
<path d="M167.147 17.4889V182.511C167.147 183.288 166.954 184.02 166.616 184.664L33.5493 184.942C33.1066 184.237 32.8531 183.4 32.8531 182.511V17.4889C32.8531 14.9416 34.9175 12.8772 37.4648 12.8772H162.535C165.082 12.8772 167.147 14.9416 167.147 17.4889V17.4889Z" fill="#8CE1A4"/>
<path d="M167.147 17.4889V182.511C167.147 183.3 166.95 184.044 166.6 184.692H158.781C159.131 184.044 159.328 183.3 159.328 182.511V17.4889C159.328 14.9416 157.264 12.8772 154.716 12.8772H162.535C165.083 12.8772 167.147 14.9416 167.147 17.4889V17.4889Z" fill="#78C2A4"/>
<path d="M144.076 57.6017V135.284H62.5996V57.6017C62.5996 42.0001 75.2475 29.3481 90.8531 29.3481H115.823C131.425 29.3481 144.076 42.0001 144.076 57.6017V57.6017Z" fill="#7A6D79"/>
<path d="M100.708 29.3481L82.829 57.9437C82.2455 58.8129 81.2917 59.2797 80.3179 59.2797C79.7424 59.2797 79.1589 59.1147 78.6398 58.7687C77.2555 57.8391 76.8893 55.9638 77.8149 54.5795L93.5895 29.3481H100.708Z" fill="#685E68"/>
<path d="M115.822 29.3481H106.525C122.13 29.3481 134.779 41.998 134.779 57.6025V135.283H144.076V57.6025C144.076 41.998 131.427 29.3481 115.822 29.3481V29.3481Z" fill="#685E68"/>
<path d="M124.005 131.73L130.98 156.778L116.097 187.123H74.6286L68.6632 158.008L74.6245 131.731L124.005 131.73Z" fill="#7A6D79"/>
<path d="M124.005 136.084L130.98 156.778L116.097 187.123H106.798V143.086C106.798 140.447 107.699 138.016 109.212 136.084H124.005Z" fill="#685E68"/>
<path d="M124.001 110.825V75.1525C124.001 73.2499 122.582 71.6254 120.69 71.4209C107.73 70.0181 102.267 60.5022 100.286 55.5775C99.5734 53.8069 97.8704 52.6362 95.9618 52.6362H77.9831C76.128 52.6362 74.6241 54.1401 74.6241 55.9952V91.9248C74.6241 102.364 83.0865 110.827 93.526 110.827C94.2101 110.827 94.7646 111.381 94.7646 112.065V116.169C94.7646 122.173 90.7296 127.428 84.9284 128.978L74.6278 131.73V137.324C74.6278 148.749 83.8873 158.008 95.3078 158.008H103.32C104.503 158.008 105.666 157.907 106.797 157.718C116.563 156.064 124.004 147.565 124.004 137.324V110.825H124.001Z" fill="#F6A96C"/>
<path d="M124.005 131.73H124.003V110.825H124.002V75.1525C124.002 73.2499 122.582 71.6254 120.691 71.4209C107.731 70.0181 102.267 60.5022 100.286 55.5775C99.5739 53.8069 97.8708 52.6362 95.9622 52.6362H90.0161C90.0161 52.6362 93.7875 69.5147 111.394 71.4205C113.285 71.6254 114.705 73.2499 114.705 75.1521V110.826H114.706V132.264C110.119 133.723 106.798 138.015 106.798 143.086V153.582C103.436 156.225 99.2374 157.851 94.6644 157.991C94.8785 157.998 95.0914 158.007 95.3071 158.007H103.319C104.505 158.007 105.666 157.902 106.798 157.71V157.718L106.804 157.709C116.565 156.052 124.004 147.559 124.004 137.323V131.732L124.005 131.73Z" fill="#EA9B58"/>
<path d="M74.6238 131.73V187.123H37.4648C35.8109 187.123 34.3582 186.254 33.5493 184.942L47.0584 142.515C49.1067 136.093 55.0704 131.73 61.8109 131.73H74.6238Z" fill="#C4A098"/>
<path d="M65.3276 131.731H74.6246V187.123H65.3276V131.731Z" fill="#A3847E"/>
<path d="M166.616 184.664C165.839 186.129 164.306 187.123 162.535 187.123H116.097V143.087C116.097 136.813 121.179 131.73 127.449 131.73H145.992C151.336 131.73 155.956 135.457 157.087 140.684L166.616 184.664Z" fill="#C4A098"/>
<path d="M166.616 184.664C165.839 186.129 164.306 187.123 162.535 187.123H151.324C151.342 187.123 151.359 187.123 151.377 187.122C153.736 187.096 155.443 184.842 154.944 182.536L145.875 140.684C144.744 135.457 140.125 131.73 134.781 131.73H145.992C151.336 131.73 155.956 135.457 157.087 140.684L166.616 184.664Z" fill="#A3847E"/>
<path d="M91.1054 93.653C89.4386 93.653 88.0873 92.3017 88.0873 90.6349V75.4695C88.0873 73.8027 89.4386 72.4514 91.1054 72.4514H96.0938C97.7606 72.4514 99.1119 73.8027 99.1119 75.4695C99.1119 77.1363 97.7606 78.4876 96.0938 78.4876H94.1236V90.6349C94.1236 92.3017 92.7723 93.653 91.1054 93.653V93.653Z" fill="#EA9B58"/>
</svg>
