<svg width="200" height="200" viewBox="0 0 200 200" fill="none" xmlns="http://www.w3.org/2000/svg">
<g clip-path="url(#clip0_70_1625)">
<path d="M13.9116 153.67H2.97324C1.33082 153.67 0 152.339 0 150.697C0 149.054 1.33082 147.723 2.97324 147.723H13.9116C15.554 147.723 16.8848 149.054 16.8848 150.697C16.8848 152.339 15.5536 153.67 13.9116 153.67Z" fill="#E1DEE2"/>
<path d="M36.0357 160.252H18.337C15.893 160.252 13.9116 158.271 13.9116 155.827V145.566C13.9116 143.122 15.893 141.141 18.337 141.141H36.0357V160.252Z" fill="#A3847E"/>
<path d="M24.4254 141.141H36.0357V160.252H24.4254V141.141Z" fill="#8E746E"/>
<path d="M176.219 168.698H150.259V119.729H176.219V168.698Z" fill="#FFCEBF"/>
<path d="M162.826 119.729H176.219V168.698H162.826V119.729Z" fill="#FFB09E"/>
<path d="M193.91 179.807L171.571 168.697V119.729L193.91 108.62C196.711 107.227 200 109.264 200 112.392V176.034C200 179.162 196.712 181.2 193.91 179.807V179.807Z" fill="#7A6D79"/>
<path d="M193.91 108.62L190.773 110.18C191.166 110.813 191.402 111.563 191.402 112.393V176.034C191.402 176.864 191.166 177.614 190.773 178.247L193.91 179.807C196.711 181.2 200 179.162 200 176.035V112.392C200 109.264 196.712 107.227 193.91 108.62V108.62Z" fill="#685E68"/>
<path d="M154.906 168.698V177.649C154.906 181.95 151.421 185.435 147.12 185.435H58.6997C52.6105 185.435 47.2587 181.384 45.6095 175.52L43.6868 168.698L101.487 164.099L154.906 168.698Z" fill="#9DC9EB"/>
<path d="M146.308 168.697V177.65C146.308 181.95 142.823 185.436 138.523 185.436H147.121C151.42 185.436 154.906 181.951 154.906 177.65V168.697L148.239 168.124L146.308 168.697Z" fill="#7EBAE6"/>
<path d="M134.779 168.698V185.435H128.833V168.698C128.833 167.053 130.161 165.725 131.806 165.725C133.447 165.725 134.779 167.053 134.779 168.698V168.698Z" fill="#7EBAE6"/>
<path d="M154.906 89.4827V168.698H37.6333C35.0882 168.698 33.0228 166.632 33.0228 164.087V89.4827H154.906Z" fill="#C4A098"/>
<path d="M154.906 89.4827V89.6928C146.438 100.238 133.435 106.989 118.858 106.989C104.182 106.989 91.108 100.151 82.6442 89.4827H154.906Z" fill="#A3847E"/>
<path d="M146.308 89.4839H154.906V168.698H146.308V89.4839Z" fill="#A3847E"/>
<path d="M133.046 136.194H119.437L111.417 138.799L103.398 136.194H87.3586L79.3392 138.799L71.3197 136.194H57.711C56.3687 136.194 55.2809 137.282 55.2809 138.624V149.802C55.2809 151.145 56.3691 152.232 57.711 152.232H71.3197L79.3392 149.811L87.3586 152.232H103.398L111.417 150.696L119.437 152.232H133.046C134.388 152.232 135.476 151.144 135.476 149.802V138.624C135.476 137.282 134.388 136.194 133.046 136.194V136.194Z" fill="#8CE1A4"/>
<path d="M71.3197 136.194H87.359V152.233H71.3197V136.194Z" fill="#78C2A4"/>
<path d="M103.398 136.194H119.437V152.233H103.398V136.194Z" fill="#78C2A4"/>
<path d="M133.046 136.194H124.448C125.79 136.194 126.878 137.282 126.878 138.624V149.802C126.878 151.145 125.79 152.232 124.448 152.232H133.046C134.388 152.232 135.476 151.144 135.476 149.802V138.624C135.476 137.282 134.388 136.194 133.046 136.194V136.194Z" fill="#78C2A4"/>
<path d="M127.457 106.989C152.979 106.989 173.669 86.2992 173.669 60.7767C173.669 35.2542 152.979 14.5642 127.457 14.5642C101.934 14.5642 81.2444 35.2542 81.2444 60.7767C81.2444 86.2992 101.934 106.989 127.457 106.989Z" fill="#E1DEE2"/>
<path d="M127.457 14.5642C126.007 14.5642 124.574 14.6344 123.158 14.7648C146.664 16.9337 165.072 36.7038 165.072 60.7763C165.072 84.8488 146.664 104.619 123.158 106.788C124.574 106.919 126.007 106.989 127.457 106.989C152.979 106.989 173.669 86.2986 173.669 60.7763C173.669 35.254 152.979 14.5642 127.457 14.5642V14.5642Z" fill="#CBC4CC"/>
<path d="M58.8702 89.1299L60.0079 92.456C57.8236 104.242 48.107 113.384 36.0357 114.7L33.0228 114.149L30.0892 114.708C29.6333 114.66 29.1814 114.601 28.7334 114.529C17.2607 112.73 8.14271 103.826 6.03766 92.456L6.96531 89.5383L5.58969 86.5095C6.01784 73.2211 15.8969 62.3192 28.7255 60.3053H28.7294C29.1774 60.234 29.6333 60.1745 30.0892 60.127L33.0228 60.7414L36.0357 60.1349C49.4827 61.6017 60.0119 72.7811 60.4559 86.5095L58.8702 89.1299Z" fill="#E1DEE2"/>
<path d="M58.8702 89.1299L60.0079 92.456C57.8236 104.242 48.107 113.384 36.0357 114.7L33.0228 114.149L30.0892 114.708C29.6333 114.66 29.1814 114.601 28.7334 114.529C41.8474 112.464 51.8731 101.11 51.8731 87.4173C51.8731 73.7206 41.8474 62.3747 28.7294 60.3053C29.1774 60.234 29.6333 60.1745 30.0892 60.127L33.0228 60.7414L36.0357 60.1349C49.4827 61.6017 60.0119 72.7811 60.4559 86.5095L58.8702 89.1299Z" fill="#CBC4CC"/>
<path d="M127.457 47.2906C132.743 47.2906 137.028 43.0055 137.028 37.7195C137.028 32.4335 132.743 28.1484 127.457 28.1484C122.171 28.1484 117.886 32.4335 117.886 37.7195C117.886 43.0055 122.171 47.2906 127.457 47.2906Z" fill="#7A6D79"/>
<path d="M127.457 28.1479C126.025 28.1479 124.667 28.4647 123.447 29.0284C126.729 30.5456 129.009 33.8653 129.009 37.719C129.009 41.5727 126.73 44.8924 123.447 46.4096C124.667 46.9733 126.025 47.2901 127.457 47.2901C132.743 47.2901 137.028 43.005 137.028 37.719C137.028 32.433 132.743 28.1479 127.457 28.1479Z" fill="#685E68"/>
<path d="M127.457 93.4051C132.743 93.4051 137.028 89.1199 137.028 83.834C137.028 78.548 132.743 74.2629 127.457 74.2629C122.171 74.2629 117.886 78.548 117.886 83.834C117.886 89.1199 122.171 93.4051 127.457 93.4051Z" fill="#7A6D79"/>
<path d="M127.457 74.2629C126.025 74.2629 124.667 74.5797 123.447 75.1434C126.729 76.6606 129.009 79.9803 129.009 83.834C129.009 87.6877 126.73 91.0074 123.447 92.5246C124.667 93.0883 126.025 93.4051 127.457 93.4051C132.743 93.4051 137.028 89.12 137.028 83.834C137.028 78.548 132.743 74.2629 127.457 74.2629Z" fill="#685E68"/>
<path d="M150.514 70.3477C155.8 70.3477 160.085 66.0626 160.085 60.7766C160.085 55.4907 155.8 51.2056 150.514 51.2056C145.228 51.2056 140.943 55.4907 140.943 60.7766C140.943 66.0626 145.228 70.3477 150.514 70.3477Z" fill="#7A6D79"/>
<path d="M150.514 51.2056C149.082 51.2056 147.724 51.5223 146.504 52.086C149.787 53.6032 152.066 56.9229 152.066 60.7766C152.066 64.6303 149.787 67.9501 146.504 69.4672C147.724 70.0309 149.082 70.3477 150.514 70.3477C155.8 70.3477 160.086 66.0627 160.086 60.7766C160.086 55.4906 155.8 51.2056 150.514 51.2056Z" fill="#685E68"/>
<path d="M104.399 70.3477C109.685 70.3477 113.97 66.0626 113.97 60.7766C113.97 55.4907 109.685 51.2056 104.399 51.2056C99.1133 51.2056 94.8282 55.4907 94.8282 60.7766C94.8282 66.0626 99.1133 70.3477 104.399 70.3477Z" fill="#7A6D79"/>
<path d="M104.399 51.2056C102.967 51.2056 101.61 51.5223 100.389 52.086C103.672 53.6032 105.951 56.9229 105.951 60.7766C105.951 64.6303 103.672 67.9501 100.389 69.4672C101.609 70.0309 102.967 70.3477 104.399 70.3477C109.685 70.3477 113.971 66.0627 113.971 60.7766C113.971 55.4906 109.685 51.2056 104.399 51.2056Z" fill="#685E68"/>
<path d="M132.503 119.163H58.2537C56.6113 119.163 55.2805 120.494 55.2805 122.137C55.2805 123.779 56.6113 125.11 58.2537 125.11H132.503C134.146 125.11 135.476 123.779 135.476 122.137C135.476 120.494 134.146 119.163 132.503 119.163Z" fill="#FFCEBF"/>
<path d="M127.457 64.1682C129.124 64.1682 130.475 62.8169 130.475 61.1501C130.475 59.4833 129.124 58.1321 127.457 58.1321C125.79 58.1321 124.439 59.4833 124.439 61.1501C124.439 62.8169 125.79 64.1682 127.457 64.1682Z" fill="#7A6D79"/>
<path d="M44.0848 103.086C45.7516 103.086 47.1028 101.735 47.1028 100.068C47.1028 98.401 45.7516 97.0498 44.0848 97.0498C42.418 97.0498 41.0668 98.401 41.0668 100.068C41.0668 101.735 42.418 103.086 44.0848 103.086Z" fill="#7A6D79"/>
<path d="M60.4717 87.4172C60.4717 89.1377 60.3132 90.8226 60.0079 92.4559H36.0357V114.7C35.0446 114.811 34.0416 114.866 33.0228 114.866C32.0317 114.866 31.0525 114.815 30.0892 114.708V92.4559H6.03765C5.73239 90.8226 5.57382 89.1377 5.57382 87.4172C5.57382 87.112 5.57779 86.8107 5.58968 86.5094H30.0892V60.1268C31.0525 60.0198 32.0317 59.9683 33.0228 59.9683C34.0416 59.9683 35.0446 60.0238 36.0357 60.1348V86.5094H60.4559C60.4678 86.8107 60.4717 87.112 60.4717 87.4172Z" fill="#7A6D79"/>
<path d="M33.0228 59.9683C34.0416 59.9683 35.0446 60.0238 36.0357 60.1348V62.5451C34.1606 61.665 32.1665 60.9911 30.0892 60.5589V60.1268C31.0525 60.0198 32.0317 59.9683 33.0228 59.9683Z" fill="#685E68"/>
<path d="M30.0892 114.276C32.1665 113.844 34.1606 113.174 36.0357 112.293V114.7C35.0446 114.811 34.0416 114.866 33.0228 114.866C32.0317 114.866 31.0525 114.815 30.0892 114.708V114.276Z" fill="#685E68"/>
<path d="M60.4717 87.4173C60.4717 89.1379 60.3132 90.8227 60.0079 92.456H51.4133C51.7146 90.8227 51.8731 89.1379 51.8731 87.4173C51.8731 87.1121 51.8692 86.8108 51.8573 86.5095H60.4559C60.4678 86.8108 60.4717 87.1121 60.4717 87.4173Z" fill="#685E68"/>
</g>
<defs>
<clipPath id="clip0_70_1625">
<rect width="200" height="200" fill="white"/>
</clipPath>
</defs>
</svg>
