<svg width="200" height="200" viewBox="0 0 200 200" fill="none" xmlns="http://www.w3.org/2000/svg">
<path d="M66.7734 39.925H52.5815V9.62725C52.5815 7.44093 54.3537 5.6687 56.54 5.6687H62.8149C65.0012 5.6687 66.7734 7.44093 66.7734 9.62725V39.925Z" fill="#E1DEE2"/>
<path d="M62.8153 5.6687H56.5404C56.1891 5.6687 55.8507 5.719 55.5263 5.80472C57.2201 6.25341 58.4708 7.79224 58.4708 9.62725V39.925H66.7738V9.62725C66.7734 7.44093 65.0012 5.6687 62.8153 5.6687V5.6687Z" fill="#CBC4CC"/>
<path d="M98.9054 51.8631L98.0081 67.6901L95.0704 119.42L92.3984 166.431C92.1328 170.519 88.7404 173.702 84.6398 173.702H35.2757C34.9095 173.702 34.5473 173.678 34.1932 173.626C30.5956 173.123 27.7586 170.153 27.5171 166.431L21.0101 51.8631L59.9582 45.0237L98.9054 51.8631Z" fill="#BBE0FF"/>
<path d="M98.9054 51.8623L91.6378 50.5867L88.7437 51.8623L87.2724 77.769C86.9537 83.383 85.2704 88.8346 82.369 93.6511L34.1932 173.626C34.5473 173.678 34.9095 173.702 35.2757 173.702H62.3702L83.8491 138.047L82.237 166.431C81.9706 170.52 78.5767 173.701 74.4789 173.701H84.6407C88.7384 173.701 92.1328 170.521 92.3988 166.431L95.0684 119.423L95.07 119.42L98.0077 67.6901L98.006 67.6925L98.9054 51.8623Z" fill="#9DC9EB"/>
<path d="M94.7996 34.1248H25.1163C22.0745 34.1248 19.3421 35.9859 18.2282 38.8165L14.5823 48.0813C13.8676 49.8974 15.2064 51.8628 17.1578 51.8628H102.758C104.709 51.8628 106.048 49.8974 105.333 48.0813L101.687 38.8165C100.574 35.9855 97.8415 34.1248 94.7996 34.1248V34.1248Z" fill="#7EBAE6"/>
<path d="M105.334 48.0813L101.688 38.8165C100.574 35.9859 97.8414 34.1248 94.7996 34.1248H84.6378C87.6797 34.1248 90.4121 35.9859 91.5259 38.8165L95.1718 48.0813C95.8865 49.8974 94.5477 51.8624 92.5964 51.8624H102.758C104.709 51.8624 106.048 49.8974 105.334 48.0813V48.0813Z" fill="#4DA6D1"/>
<path d="M93.2185 138.856L132.361 133.401L169.014 138.856C173.662 138.856 177.429 142.624 177.429 147.271V156.637C177.429 166.061 169.79 173.701 160.365 173.701H110.282C100.858 173.701 93.2181 166.061 93.2181 156.637V138.856H93.2185Z" fill="#F6A96C"/>
<path d="M169.014 138.856L161.074 137.674L158.853 138.856C163.5 138.856 167.268 142.624 167.268 147.271V156.637C167.268 166.061 159.628 173.701 150.204 173.701H160.365C169.79 173.701 177.429 166.061 177.429 156.637V147.271C177.429 142.624 173.662 138.856 169.014 138.856V138.856Z" fill="#EA9B58"/>
<path d="M93.2185 138.856H168.991C173.652 138.856 177.429 135.078 177.429 130.418V123.585L135.324 118.785L93.2185 123.585V138.856Z" fill="#FCCD7F"/>
<path d="M167.267 123.585V130.418C167.267 135.078 163.489 138.856 158.829 138.856H168.991C173.651 138.856 177.429 135.078 177.429 130.418V123.585L169.138 122.639L167.267 123.585Z" fill="#F0B95F"/>
<path d="M93.2185 102.962L134.566 98.1628L177.429 102.962H178.728C182.53 102.962 185.612 106.044 185.612 109.847V116.699C185.612 120.502 182.53 123.584 178.728 123.584H93.2185V102.962Z" fill="#A3847E"/>
<path d="M178.728 102.962H177.429L172.604 102.421L168.566 102.962C172.369 102.962 175.451 106.044 175.451 109.846V116.699C175.451 120.502 172.369 123.584 168.566 123.584H178.728C182.53 123.584 185.613 120.502 185.613 116.699V109.847C185.612 106.044 182.53 102.962 178.728 102.962V102.962Z" fill="#8E746E"/>
<path d="M96.429 102.962H177.429V101.291C177.429 83.2304 162.788 68.5894 144.727 68.5894H125.92C107.859 68.5894 96.5195 83.2304 96.5195 101.291L96.429 102.962Z" fill="#F6A96C"/>
<path d="M144.727 68.5894H134.565C152.626 68.5894 167.267 83.2304 167.267 101.291V102.962H177.429V101.291C177.429 83.2304 162.788 68.5894 144.727 68.5894Z" fill="#EA9B58"/>
<path d="M76.3022 114.994C76.3022 130.998 68.8575 143.968 59.6785 143.968C57.4451 143.968 55.3123 143.199 53.3646 141.803C47.3163 137.473 43.0547 127.103 43.0547 114.994C43.0547 102.084 47.8998 91.1468 54.596 87.4043C56.1976 86.5029 57.9078 86.02 59.6785 86.02C66.9098 86.02 73.0628 94.0683 75.3485 105.304C75.9646 108.334 76.3022 111.597 76.3022 114.994Z" fill="#EFEDF0"/>
<path d="M76.3022 114.994C76.3022 130.998 68.8576 143.968 59.6785 143.968C57.4451 143.968 55.3123 143.199 53.3646 141.803L65.7469 121.243C66.0004 119.231 66.1372 117.139 66.1372 114.994C66.1372 102.08 61.2922 91.1468 54.596 87.4043C56.1976 86.5029 57.9079 86.02 59.6785 86.02C66.9099 86.02 73.0628 94.0683 75.3485 105.304C75.9646 108.334 76.3022 111.597 76.3022 114.994Z" fill="#E1DEE2"/>
<path d="M142.416 87.5074C144.073 87.5074 145.416 86.1641 145.416 84.507C145.416 82.8499 144.073 81.5066 142.416 81.5066C140.759 81.5066 139.415 82.8499 139.415 84.507C139.415 86.1641 140.759 87.5074 142.416 87.5074Z" fill="#E1DEE2"/>
<path d="M155.779 87.5074C157.436 87.5074 158.779 86.1641 158.779 84.507C158.779 82.8499 157.436 81.5066 155.779 81.5066C154.122 81.5066 152.778 82.8499 152.778 84.507C152.778 86.1641 154.122 87.5074 155.779 87.5074Z" fill="#E1DEE2"/>
</svg>
