<svg width="200" height="200" viewBox="0 0 200 200" fill="none" xmlns="http://www.w3.org/2000/svg">
<path d="M162.5 81.25H43.75V193.75H106.25V175H143.75C157.557 175 168.75 163.807 168.75 150V87.5C168.75 84.0484 165.952 81.25 162.5 81.25Z" fill="#FFDFCF"/>
<path d="M37.5 81.25C34.048 81.25 31.25 84.0484 31.25 87.5V150C31.25 156.904 36.8465 162.5 43.75 162.5H75C81.9035 162.5 87.5 156.904 87.5 150V118.75C97.8555 118.75 106.25 110.355 106.25 100V81.25H37.5Z" fill="#463C4B"/>
<path d="M87.5 100C77.1445 100 68.75 108.395 68.75 118.75C68.75 129.105 77.1445 137.5 87.5 137.5V100Z" fill="#FFDFCF"/>
<path d="M106.25 193.75H43.75C43.75 183.395 52.1445 175 62.5 175H106.25V193.75Z" fill="#FFCEBF"/>
<path d="M150 137.5C144.822 137.5 140.625 133.303 140.625 128.125V106.25C150.98 106.25 159.375 114.645 159.375 125V128.125C159.375 133.303 155.178 137.5 150 137.5Z" fill="#FFCEBF"/>
<path d="M156.25 106.25C159.702 106.25 162.5 103.452 162.5 100C162.5 96.5482 159.702 93.75 156.25 93.75C152.798 93.75 150 96.5482 150 100C150 103.452 152.798 106.25 156.25 106.25Z" fill="#FFCEBF"/>
<path d="M125 106.25C128.452 106.25 131.25 103.452 131.25 100C131.25 96.5482 128.452 93.75 125 93.75C121.548 93.75 118.75 96.5482 118.75 100C118.75 103.452 121.548 106.25 125 106.25Z" fill="#FFCEBF"/>
<path d="M140.625 156.25H146.875C152.053 156.25 156.25 152.053 156.25 146.875H131.25C131.25 152.053 135.447 156.25 140.625 156.25Z" fill="#FFCEBF"/>
<path d="M156.25 6.25H62.5C59.048 6.25 56.25 9.04805 56.25 12.5V81.25H162.5V12.5C162.5 9.04805 159.702 6.25 156.25 6.25Z" fill="#23AAE6"/>
<path d="M150 6.25H62.5C59.048 6.25 56.25 9.04805 56.25 12.5V81.25H156.25V12.5C156.25 9.04805 153.452 6.25 150 6.25Z" fill="#5AD7FF"/>
<path d="M131.25 6.25H62.5C59.048 6.25 56.25 9.04805 56.25 12.5V81.25H137.5V12.5C137.5 9.04805 134.702 6.25 131.25 6.25Z" fill="#23AAE6"/>
<path d="M125 6.25H62.5C59.048 6.25 56.25 9.04805 56.25 12.5V81.25H131.25V12.5C131.25 9.04805 128.452 6.25 125 6.25Z" fill="#5AD7FF"/>
<path d="M150 81.25H137.5V12.5H146.875C148.601 12.5 150 13.8992 150 15.625V81.25Z" fill="#D7E6F0"/>
<path d="M118.75 25H43.75C40.298 25 37.5 27.798 37.5 31.25V81.25H125V31.25C125 27.798 122.202 25 118.75 25Z" fill="#5FAA46"/>
<path d="M100 25H43.75C40.298 25 37.5 27.798 37.5 31.25V81.25H106.25V31.25C106.25 27.798 103.452 25 100 25Z" fill="#91C83C"/>
<path d="M90.625 62.5H53.125C51.3992 62.5 50 61.1008 50 59.375V40.625C50 38.8992 51.3992 37.5 53.125 37.5H90.625C92.3508 37.5 93.75 38.8992 93.75 40.625V59.375C93.75 61.1008 92.3508 62.5 90.625 62.5Z" fill="#5FAA46"/>
<path d="M106.25 37.5H125V46.875H106.25V37.5Z" fill="#FAA019"/>
</svg>
