<svg width="200" height="200" viewBox="0 0 200 200" fill="none" xmlns="http://www.w3.org/2000/svg">
<g clip-path="url(#clip0_70_1689)">
<path d="M200 37.7203V167.543C200 171.177 197.054 174.123 193.421 174.123H6.57948C2.94567 174.123 0 171.177 0 167.543V37.7203L46.1247 34.7867L52.161 34.4044L97.1992 31.5392L100 31.3622L102.801 31.5392L147.839 34.4044L153.875 34.7867L200 37.7203Z" fill="#BBE0FF"/>
<path d="M153.875 32.6619V174.123H147.839V32.6619C147.839 30.9959 149.191 29.6438 150.857 29.6438C152.523 29.6438 153.875 30.9959 153.875 32.6619V32.6619Z" fill="#9DC9EB"/>
<path d="M103.018 32.6619V174.123H96.9819V32.6619C96.9819 32.2635 97.0584 31.8852 97.1992 31.5392C97.6459 30.4285 98.7324 29.6438 100 29.6438C101.268 29.6438 102.354 30.4285 102.801 31.5392C102.942 31.8852 103.018 32.2635 103.018 32.6619V32.6619Z" fill="#9DC9EB"/>
<path d="M52.161 32.6619V174.123H46.1248V32.6619C46.1248 30.9959 47.4769 29.6438 49.1429 29.6438C50.8089 29.6438 52.161 30.9959 52.161 32.6619V32.6619Z" fill="#9DC9EB"/>
<path d="M190.84 37.7222V167.544C190.84 171.177 187.895 174.122 184.262 174.122H193.422C197.055 174.122 200 171.177 200 167.544V37.7222L193.442 37.3049L190.84 37.7222Z" fill="#9DC9EB"/>
<path d="M12.6153 74.8962V76.9014C12.6153 78.1485 13.3795 79.2688 14.5404 79.7235L15.7356 80.1919C16.2362 80.3879 16.6757 80.7139 17.0089 81.136L19.394 84.1569C19.9698 84.8865 20.1795 85.8398 19.9622 86.7437L18.6692 92.1235C18.4346 93.1002 18.699 94.13 19.3755 94.8728L30.332 106.904C30.9062 107.534 31.7199 107.894 32.573 107.894H35.1421C36.0419 107.894 36.895 108.294 37.4708 108.985L37.6885 109.246C38.5296 110.255 38.625 111.691 37.9239 112.803L34.1135 118.847C33.8085 119.332 33.6467 119.892 33.6467 120.464V127.427C33.6467 128.646 34.3771 129.746 35.5006 130.22L40.2728 132.231C41.3964 132.705 42.1268 133.806 42.1268 135.025V149.967C42.1268 151.092 42.7501 152.125 43.7461 152.649L49.0064 155.418C50.5183 156.214 52.3891 155.603 53.1404 154.068L66.6213 126.539C66.8245 126.124 66.9304 125.668 66.9304 125.206V118.59C66.9304 117.472 66.3155 116.445 65.33 115.917L52.5871 109.094C52.1823 108.877 51.8322 108.571 51.563 108.2L49.0551 104.736C47.5646 102.678 49.1163 99.8097 51.6547 99.9308C52.8909 99.9899 54.039 99.2913 54.5545 98.1662L59.0475 88.3658C59.4189 87.5557 59.4149 86.6229 59.0366 85.8161L56.6451 80.7139C56.1461 79.6491 55.0761 78.969 53.9002 78.969H46.9332C45.2592 78.969 43.9018 77.6121 43.9018 75.9376V74.8958C43.9018 73.2217 42.5449 71.8644 40.8704 71.8644H15.6467C13.9726 71.8648 12.6153 73.2217 12.6153 74.8962V74.8962Z" fill="#8CE1A4"/>
<path d="M65.33 115.917L52.5871 109.093C52.1823 108.876 51.8322 108.571 51.563 108.199L49.0551 104.736C47.5646 102.678 49.1163 99.8096 51.6547 99.9308C52.8909 99.9895 54.0386 99.2913 54.5545 98.1662L59.0475 88.3658C59.4189 87.5557 59.4149 86.6229 59.0366 85.8161L56.6451 80.7138C56.1461 79.6491 55.076 78.969 53.9006 78.969H46.9336C45.2595 78.969 43.9022 77.612 43.9022 75.938V74.8961C43.9022 73.2221 42.5453 71.8647 40.8708 71.8647H31.7115C33.3855 71.8647 34.7428 73.2217 34.7428 74.8961V75.938C34.7428 77.612 36.0998 78.969 37.7742 78.969H44.7412C45.9171 78.969 46.9867 79.6491 47.4861 80.7138L49.8777 85.8161C50.2559 86.6229 50.2599 87.5557 49.8885 88.3658L45.3956 98.1662C44.8797 99.2913 43.732 99.9895 42.4958 99.9308C39.9573 99.8096 38.4056 102.678 39.8962 104.736L42.404 108.199C42.6732 108.571 43.0233 108.877 43.4282 109.093L56.171 115.917C57.1561 116.445 57.7714 117.472 57.7714 118.589V125.206C57.7714 125.668 57.6656 126.124 57.4624 126.539L45.6861 151.206C45.3147 151.964 44.6688 152.496 43.9288 152.745L49.0072 155.418C50.5191 156.214 52.3899 155.603 53.1412 154.068L66.6221 126.539C66.8253 126.124 66.9312 125.668 66.9312 125.206V118.589C66.9304 117.472 66.3151 116.445 65.33 115.917V115.917Z" fill="#78C2A4"/>
<path d="M65.4217 65.4519L64.9179 66.4132C64.1767 67.8285 64.4185 69.5585 65.5195 70.7158L71.0177 76.4961C72.4318 77.9826 74.7803 78.0486 76.2757 76.6438L80.7694 72.4221C81.5203 71.717 81.9461 70.7327 81.9461 69.7026V67.1822C81.9461 65.1215 80.2757 63.451 78.2149 63.451H68.7264C67.3388 63.4519 66.0656 64.2225 65.4217 65.4519V65.4519Z" fill="#8CE1A4"/>
<path d="M78.2153 63.4519H69.0555C71.1163 63.4519 72.7867 65.1223 72.7867 67.1831V69.7034C72.7867 70.7336 72.361 71.7175 71.6101 72.4229L69.2511 74.639L71.0181 76.4966C72.4322 77.9831 74.7807 78.0491 76.2761 76.6443L80.7698 72.4229C81.5207 71.7179 81.9465 70.7336 81.9465 69.7034V67.1831C81.9465 65.1227 80.2761 63.4519 78.2153 63.4519V63.4519Z" fill="#78C2A4"/>
<path d="M103.806 71.5516L97.0745 76.7199C96.2696 77.338 95.7976 78.2949 95.7976 79.3098V82.3887C95.7976 83.4285 95.3022 84.4064 94.4636 85.0217L91.1235 87.472C88.9372 89.0756 89.5449 92.4909 92.1501 93.2426L106.551 97.3967C109.003 98.1042 109.732 101.225 107.847 102.946L107.254 103.487C106.653 104.037 105.867 104.341 105.052 104.341H88.1602C86.7356 104.341 85.4753 105.265 85.0463 106.623L83.3984 111.842C82.9912 113.132 83.4209 114.538 84.4793 115.381L94.7493 123.552C95.4209 124.086 95.8551 124.864 95.9582 125.716L98.3602 145.616C98.5582 147.256 99.9501 148.49 101.602 148.49H111.288C112.829 148.49 114.16 147.412 114.482 145.905L120.528 117.535L122.439 107.804C122.87 105.608 125.333 104.486 127.273 105.603L130.44 107.426C131.237 107.886 132.191 107.987 133.066 107.706L143.62 104.321C144.578 104.014 145.625 104.165 146.457 104.732L150.897 107.76C152.355 108.754 154.337 108.411 155.376 106.986L162.595 97.0824C163.114 96.3702 163.899 95.8981 164.772 95.7734L168.818 95.1955C169.879 95.0438 170.798 94.3818 171.277 93.4233L175.952 84.0724C176.505 82.9661 177.636 82.2671 178.873 82.2671C181.186 82.2671 182.765 79.9291 181.903 77.7834L179.828 72.6241C179.189 71.0333 177.428 70.208 175.796 70.7343L165.975 73.9013C164.997 74.2164 163.928 74.0535 163.089 73.4611L152.329 65.8655C151.778 65.4768 151.12 65.2679 150.445 65.2679H137.138C136.562 65.2679 135.996 65.4205 135.498 65.7094L121.667 73.7404C120.936 74.1649 120.068 74.2893 119.247 74.0873L106.574 70.971C105.611 70.7339 104.592 70.9476 103.806 71.5516V71.5516Z" fill="#8CE1A4"/>
<path d="M153.93 73.4611C154.769 74.0535 155.837 74.2164 156.815 73.9013L161.55 72.3746L152.329 65.8655C151.778 65.4764 151.12 65.2679 150.445 65.2679H141.285C141.96 65.2679 142.618 65.4768 143.169 65.8655L153.93 73.4611Z" fill="#78C2A4"/>
<path d="M121.28 107.427L118.113 105.604C116.173 104.487 113.711 105.608 113.279 107.804L111.368 117.536L105.322 145.905C105.001 147.413 103.669 148.49 102.128 148.49H111.288C112.829 148.49 114.161 147.412 114.482 145.905L120.528 117.536L122.436 107.824C122.033 107.765 121.64 107.634 121.28 107.427V107.427Z" fill="#78C2A4"/>
<path d="M137.297 104.733C136.465 104.166 135.418 104.014 134.46 104.321L128.414 106.261L130.44 107.427C131.237 107.886 132.191 107.987 133.066 107.707L138.909 105.833L137.297 104.733Z" fill="#8CE1A4"/>
<path d="M181.903 77.7839L179.828 72.6246C179.189 71.0338 177.428 70.2089 175.796 70.7349L170.574 72.419C170.606 72.4866 170.64 72.5542 170.668 72.625L172.743 77.7844C173.606 79.93 172.026 82.2681 169.713 82.2681C168.476 82.2681 167.346 82.9671 166.792 84.0733L162.117 93.4242C161.638 94.3827 160.719 95.0451 159.658 95.1964L155.612 95.7743C154.74 95.899 153.955 96.3711 153.435 97.0833L147.394 105.372L150.898 107.761C152.355 108.755 154.337 108.412 155.376 106.987L162.596 97.0833C163.115 96.3711 163.9 95.899 164.773 95.7743L168.819 95.1964C169.879 95.0451 170.798 94.3827 171.277 93.4242L175.953 84.0733C176.506 82.9671 177.636 82.2681 178.873 82.2681C181.186 82.2677 182.765 79.9296 181.903 77.7839V77.7839Z" fill="#78C2A4"/>
<path d="M166.152 135.364L163.772 138.729C163.214 139.519 162.908 140.511 162.908 141.536C162.908 143.694 164.247 145.535 166.07 145.884L175.501 147.69C175.936 147.773 176.355 147.945 176.74 148.198L178.773 149.534C179.338 149.905 179.975 150.099 180.623 150.099H183.088C185.313 150.099 187.055 147.862 186.844 145.274L186.144 136.689C186.014 135.099 185.159 133.716 183.907 133.073L181.553 131.863C180.869 131.511 180.11 131.405 179.374 131.557L168.401 133.831C167.52 134.014 166.722 134.558 166.152 135.364V135.364Z" fill="#8CE1A4"/>
<path d="M186.845 145.274L186.144 136.689C186.015 135.099 185.159 133.716 183.908 133.073L181.553 131.863C180.869 131.511 180.111 131.405 179.375 131.557L173.976 132.676L174.748 133.073C175.999 133.716 176.855 135.099 176.984 136.689L177.684 145.274C177.778 146.417 177.489 147.49 176.947 148.334L178.773 149.533C179.338 149.904 179.975 150.099 180.623 150.099H183.088C185.313 150.099 187.056 147.862 186.845 145.274V145.274Z" fill="#78C2A4"/>
<path d="M193.422 25H6.57787C2.94487 25 0 27.9449 0 31.5775V37.7219H200V31.5775C200 27.9449 197.055 25 193.422 25Z" fill="#FFCEBF"/>
<path d="M193.422 25H184.262C187.895 25 190.84 27.9449 190.84 31.5775V37.7223H200V31.5775C200 27.9449 197.055 25 193.422 25Z" fill="#FFB09E"/>
<path d="M181.594 102.286C181.162 102.286 180.722 102.193 180.305 101.995C178.798 101.282 178.155 99.4825 178.868 97.9763L181.659 92.0793C182.372 90.5727 184.172 89.9296 185.678 90.6423C187.185 91.3554 187.829 93.155 187.115 94.6612L184.324 100.558C183.809 101.648 182.725 102.286 181.594 102.286V102.286Z" fill="#8CE1A4"/>
<path d="M167.85 123.441C167.552 123.441 167.249 123.397 166.95 123.303L161.606 121.635C160.015 121.138 159.128 119.445 159.625 117.854C160.122 116.262 161.815 115.376 163.405 115.872L168.749 117.541C170.34 118.037 171.227 119.73 170.73 121.321C170.327 122.613 169.136 123.441 167.85 123.441Z" fill="#8CE1A4"/>
<path d="M184.199 122.204H179.626C177.959 122.204 176.608 120.853 176.608 119.186C176.608 117.519 177.959 116.168 179.626 116.168H184.199C185.866 116.168 187.217 117.519 187.217 119.186C187.217 120.853 185.866 122.204 184.199 122.204Z" fill="#8CE1A4"/>
<path d="M113.892 52.5754H86.1083C84.4415 52.5754 83.0901 51.2245 83.0901 49.5573C83.0901 47.8901 84.4415 46.5392 86.1083 46.5392H113.892C115.559 46.5392 116.91 47.8901 116.91 49.5573C116.91 51.2245 115.559 52.5754 113.892 52.5754Z" fill="#7A6D79"/>
</g>
<defs>
<clipPath id="clip0_70_1689">
<rect width="200" height="200" fill="white"/>
</clipPath>
</defs>
</svg>
