<svg width="200" height="200" viewBox="0 0 200 200" fill="none" xmlns="http://www.w3.org/2000/svg">
<g clip-path="url(#clip0_70_1512)">
<path d="M195.541 107.606L191.928 114.262L195.541 120.917V123.618C195.541 126.322 195.231 129.022 194.628 131.654L191.928 143.32L185.63 149.972L188.845 156.628L183.654 179.03L173.642 181.195L164.728 183.123L145.807 179.03C144.636 172.644 140.761 166.99 135.074 163.606L123.348 156.628L100 133.42L76.7284 156.628L75.1791 157.557L64.825 163.771C59.2153 167.139 55.3843 172.724 54.1932 179.03L36.4829 186.447L16.3461 179.03L11.1549 156.628L14.2455 150.443L8.07245 143.32L5.37225 131.654C4.76863 129.022 4.45877 126.322 4.45877 123.618V120.917L8.07245 114.507L4.45877 107.634V85.9758C4.45877 85.7223 4.45877 85.4647 4.46682 85.2112L8.95776 78.5513L5.81491 71.8953C7.33603 64.0402 10.1288 56.4748 14.0966 49.4969L24.2173 43.6861L23.2073 36.1851L36.4829 17.9919L37.2073 16.9979C39.0061 14.5311 41.3079 12.5432 43.9236 11.1307H156.076C158.692 12.5432 160.994 14.5311 162.793 16.9979L176.793 36.1851L176.117 42.841L185.903 49.4969C189.871 56.4748 192.664 64.0402 194.185 71.8953L191.453 78.5513L195.533 85.2112C195.541 85.4647 195.541 85.7223 195.541 85.9758V107.606Z" fill="#F6A96C"/>
<path d="M75.4853 151.668C53.1912 165.982 42.2704 164.906 44.2648 195.34C44.2644 197.915 42.1751 200 39.6 200H49.1091C51.6841 200 53.773 197.915 53.773 195.34L53.7899 183.245C53.7899 181.817 53.928 180.406 54.192 179.029C55.3851 172.723 59.2161 167.138 64.8266 163.772L76.7296 156.629L84.9944 151.668C79.9421 151.668 75.4853 151.668 75.4853 151.668Z" fill="#EA9B58"/>
<path d="M195.541 107.606L191.928 114.262L195.541 120.917V123.618C195.541 126.322 195.231 129.022 194.628 131.654L191.928 143.32L185.63 149.972L188.845 156.628L183.654 179.03L173.642 181.195C177.465 164.7 181.626 146.773 185.119 131.654C186.857 126.27 185.759 92.2897 186.032 85.9758C186.302 67.6539 178.7 50.2494 167.288 36.1851C162.881 31.505 152.994 13.3319 146.571 11.1307H156.076C158.692 12.5432 160.994 14.5311 162.793 16.9979L176.793 36.1851L176.117 42.841L185.903 49.4969C189.871 56.4748 192.664 64.0402 194.185 71.8953L191.453 78.5513L195.533 85.2112C195.541 85.4647 195.541 85.7223 195.541 85.9758V107.606Z" fill="#EA9B58"/>
<path d="M100 11.1307V133.42L76.7284 156.628L75.1791 157.557L75.7384 150.644C62.5393 147.155 52.8048 135.135 52.8048 120.841V76.9738L36.4829 17.9919L37.2073 16.9979C39.006 14.5311 41.3079 12.5432 43.9236 11.1307H100Z" fill="#EA9B58"/>
<path d="M185.905 49.4966H14.095C15.4724 47.06 16.9964 44.6942 18.6588 42.4169L23.2056 36.1868H176.795L181.342 42.4169C183.004 44.6942 184.528 47.06 185.905 49.4966V49.4966Z" fill="#7EBAE6"/>
<path d="M100 36.1851V49.4969H45.1992L41.5171 36.1851H100Z" fill="#7EBAE6"/>
<path d="M185.903 49.4969H176.318C173.714 44.8088 170.668 40.35 167.288 36.1851H176.793L181.34 42.4185C183.002 44.6961 184.527 47.0583 185.903 49.4969Z" fill="#4DA6D1"/>
<path d="M195.535 85.21H4.46521C4.50706 80.7175 4.9634 76.2628 5.8133 71.8958H194.186C195.037 76.2628 195.493 80.7175 195.535 85.21V85.21Z" fill="#7EBAE6"/>
<path d="M100 71.8954V85.2113H52.8048V76.9739L51.4004 71.8954H100Z" fill="#7EBAE6"/>
<path d="M195.533 85.2113H186.04C186.052 80.7042 185.59 76.2535 184.716 71.8954H194.185C195.038 76.2616 195.493 80.7163 195.533 85.2113Z" fill="#4DA6D1"/>
<path d="M4.45676 107.605H195.543V120.92H4.45676V107.605Z" fill="#7EBAE6"/>
<path d="M52.8048 107.606H100V120.917H52.8048V107.606Z" fill="#7EBAE6"/>
<path d="M195.541 107.606V120.917H186.024C186.125 116.893 186.137 112.221 186.121 107.606H195.541Z" fill="#4DA6D1"/>
<path d="M191.928 143.32L188.845 156.628H123.348L120.382 154.861C116.861 152.769 112.845 151.666 108.749 151.666H84.994L76.7284 156.628H11.1549L8.07245 143.32H191.928Z" fill="#7EBAE6"/>
<path d="M191.928 143.32L188.845 156.628H179.336C180.382 152.117 181.417 147.654 182.423 143.32H191.928Z" fill="#4DA6D1"/>
<path d="M100 36.1851V49.4969H45.1992L41.5171 36.1851H100Z" fill="#4DA6D1"/>
<path d="M100 71.8953V85.2112H52.8048V76.9737L51.4004 71.8953H100Z" fill="#4DA6D1"/>
<path d="M52.8048 107.606H100V120.917H52.8048V107.606Z" fill="#4DA6D1"/>
<path d="M62.5433 143.32C65.3642 145.968 68.6829 148.799 72.3445 150.569C73.5513 151.152 73.6189 152.853 72.4757 153.553C70.6576 154.666 68.9232 155.681 67.2757 156.628H76.7284L84.994 151.666H100V143.32H62.5433Z" fill="#4DA6D1"/>
<path d="M54.1932 179.03C53.9276 180.406 53.7908 181.815 53.7908 183.243L53.7747 195.34C53.7747 197.915 51.6861 200 49.1107 200H24.9095C22.7405 200 20.8572 198.507 20.3662 196.39L16.3461 179.03H54.1932Z" fill="#7EBAE6"/>
<path d="M54.1932 179.03C53.9276 180.406 53.7908 181.815 53.7908 183.243L53.7747 195.34C53.7747 197.915 51.6861 200 49.1107 200H39.6016C42.1771 200 44.2656 197.915 44.2656 195.34C43.8149 188.483 44.0201 183.227 44.8652 179.03H54.1932Z" fill="#4DA6D1"/>
<path d="M183.653 179.028L179.633 196.391C179.144 198.505 177.26 200 175.091 200H150.883C148.312 200 146.227 197.919 146.219 195.348L146.185 183.093C146.181 181.716 146.055 180.355 145.808 179.028H183.653V179.028Z" fill="#7EBAE6"/>
<path d="M183.654 179.03L179.634 196.39C179.143 198.507 177.26 200 175.091 200H165.581C167.751 200 169.634 198.507 170.125 196.39C171.392 190.901 172.748 185.046 174.141 179.03H183.654Z" fill="#4DA6D1"/>
<path d="M156.078 11.1328L137.857 76.9746H62.1429L43.9219 11.1328C46.8278 9.56254 50.1183 8.70862 53.5139 8.70862H67.1421L100 17.2475L132.858 8.70862H146.486C149.882 8.70862 153.173 9.56254 156.078 11.1328V11.1328Z" fill="#FCCD7F"/>
<path d="M146.486 8.70862H136.977C137.971 8.70862 138.955 8.78186 139.924 8.92471C143.639 9.4724 145.993 13.2132 144.992 16.8318L128.348 76.9746H137.857L156.078 11.1328C153.173 9.56254 149.882 8.70862 146.486 8.70862V8.70862Z" fill="#F0B95F"/>
<path d="M132.858 8.70862L123.233 76.9746H76.7674L67.1421 8.70862H132.858Z" fill="#9DC9EB"/>
<path d="M108.965 76.9746H91.0354L87.2346 7.1002C87.025 3.24306 90.0962 0 93.9594 0H106.041C109.904 0 112.975 3.24306 112.766 7.1002L108.965 76.9746Z" fill="#FCCD7F"/>
<path d="M107.031 151.666H92.9686C75.9441 151.666 62.1433 137.865 62.1433 120.841V76.9739L94.091 65.7067C97.9147 64.3582 102.085 64.3582 105.909 65.7067L137.857 76.9739V120.841C137.857 137.865 124.056 151.666 107.031 151.666Z" fill="#FFDFCF"/>
<path d="M105.909 65.7067C102.085 64.3582 97.9151 64.3582 94.091 65.7067L92.9702 66.1018C95.6813 65.7666 98.4507 66.058 101.06 66.9779L124.601 75.6012C126.852 76.4258 128.348 78.5674 128.348 80.9642V120.841C128.348 137.865 114.547 151.666 97.5224 151.666H107.031C124.056 151.666 137.857 137.865 137.857 120.841V76.9739L105.909 65.7067Z" fill="#FFCEBF"/>
<path d="M116.986 176.097L107.674 178.547L100.181 180.519L83.0141 176.097L83.9517 164.511L84.9256 152.503L85.493 145.505C85.7787 141.98 88.7203 139.268 92.2535 139.268H107.746C111.28 139.268 114.221 141.98 114.507 145.505L115.074 152.503L116.048 164.511L116.986 176.097Z" fill="#FCCD7F"/>
<path d="M116.986 176.097L107.674 178.547L107.477 176.097L106.539 164.511L104.998 145.505C104.712 141.98 101.771 139.268 98.2374 139.268H107.746C111.28 139.268 114.221 141.98 114.507 145.505L115.074 152.503L116.048 164.511L116.986 176.097Z" fill="#F0B95F"/>
<path d="M116.381 20.9767H83.6193C81.9839 20.9767 80.8169 19.3915 81.3026 17.8302L85.6781 3.76217C86.3742 1.52435 88.4451 0 90.7879 0H109.212C111.555 0 113.625 1.52435 114.322 3.76177L118.697 17.8298C119.183 19.3915 118.016 20.9767 116.381 20.9767Z" fill="#F6A96C"/>
<path d="M118.697 17.8302L114.322 3.76177C113.626 1.52435 111.555 0 109.212 0H99.703C102.046 0 104.117 1.52435 104.813 3.76177L109.188 17.8298C109.674 19.3911 108.507 20.9763 106.872 20.9763H116.381C118.016 20.9767 119.183 19.3915 118.697 17.8302V17.8302Z" fill="#EA9B58"/>
<path d="M110.584 187.887H89.4165C85.4568 187.887 82.334 184.507 82.656 180.555L83.0141 176.097H116.986L117.344 180.555C117.666 184.507 114.543 187.887 110.584 187.887V187.887Z" fill="#F6A96C"/>
<path d="M110.584 187.887H101.074C105.034 187.887 108.157 184.507 107.835 180.555L107.477 176.097H116.986L117.344 180.555C117.666 184.507 114.543 187.887 110.584 187.887Z" fill="#EA9B58"/>
<path d="M105.062 121.996C103.395 121.996 102.044 120.645 102.044 118.978V96.2922C102.044 94.6254 103.395 93.274 105.062 93.274H119.21C120.877 93.274 122.228 94.6254 122.228 96.2922C122.228 97.959 120.877 99.3103 119.21 99.3103H108.08V118.978C108.08 120.645 106.729 121.996 105.062 121.996Z" fill="#FFCEBF"/>
<path d="M87.8447 99.3103H80.7706C79.1038 99.3103 77.7525 97.959 77.7525 96.2922C77.7525 94.6254 79.1038 93.274 80.7706 93.274H87.8447C89.5115 93.274 90.8628 94.6254 90.8628 96.2922C90.8628 97.959 89.5119 99.3103 87.8447 99.3103Z" fill="#FFCEBF"/>
</g>
<defs>
<clipPath id="clip0_70_1512">
<rect width="200" height="200" fill="white"/>
</clipPath>
</defs>
</svg>
