<svg width="200" height="200" viewBox="0 0 200 200" fill="none" xmlns="http://www.w3.org/2000/svg">
<g clip-path="url(#clip0_70_1724)">
<path d="M127.901 4.64858L119.115 13.4345C118.2 14.3497 116.959 14.8638 115.664 14.8638H83.9391C82.645 14.8638 81.4035 14.3497 80.4883 13.4345L71.6239 4.5697L127.901 4.64858Z" fill="#E1DEE2"/>
<path d="M162.125 88.4554C160.484 88.4554 159.153 87.1243 159.153 85.4826V47.2147C159.153 24.4588 140.639 5.94554 117.884 5.94554H82.1162C59.3607 5.94554 40.8475 24.4588 40.8475 47.2147V80.9017C40.8475 82.5435 39.5164 83.8745 37.8747 83.8745C36.2329 83.8745 34.9019 82.5435 34.9019 80.9017V47.2147C34.9019 21.1804 56.0819 0 82.1162 0H117.884C143.918 0 165.098 21.1804 165.098 47.2147V85.4826C165.098 87.1243 163.767 88.4554 162.125 88.4554Z" fill="#D6D1D6"/>
<path d="M169.279 70.2762C169.279 67.7609 167.24 65.7216 164.724 65.7216H155.188C152.672 65.7216 150.633 67.7609 150.633 70.2762V96.0811H169.279V70.2762Z" fill="#B3ADB5"/>
<path d="M164.743 126.585H146.669V78.0352H164.743C172.366 78.0352 178.546 84.2146 178.546 91.8375V112.782C178.546 120.405 172.366 126.585 164.743 126.585Z" fill="#D6D1D6"/>
<path d="M49.367 70.2762C49.367 67.7609 47.3277 65.7216 44.8123 65.7216H35.2757C32.7603 65.7216 30.721 67.7609 30.721 70.2762V91.2541H49.367V70.2762Z" fill="#B3ADB5"/>
<path d="M35.2567 126.585H54.5198V78.0352H35.2567C27.6337 78.0352 21.4543 84.2146 21.4543 91.8375V112.782C21.4543 120.405 27.6337 126.585 35.2567 126.585V126.585Z" fill="#D6D1D6"/>
<path d="M146.669 78.0352H156.579V126.584H146.669V78.0352Z" fill="#C7C0C7"/>
<path d="M43.4215 78.0352V112.304C43.4215 115.205 40.2957 117.011 37.7669 115.589C33.5618 113.225 30.721 108.723 30.721 103.554V82.6093C30.721 81.2185 30.9323 79.872 31.3152 78.6056C25.6154 80.3032 21.4543 85.5853 21.4543 91.8368V112.782C21.4543 120.405 27.6337 126.584 35.2567 126.584H54.5198V120.01V117.356V78.0344H43.4215V78.0352Z" fill="#C7C0C7"/>
<path d="M135.629 200H64.3712C56.0847 200 49.367 193.282 49.367 184.996V51.7059C49.367 43.4194 56.0847 36.7018 64.3712 36.7018H135.628C143.915 36.7018 150.633 43.4194 150.633 51.7059V184.995C150.633 193.282 143.915 200 135.629 200V200Z" fill="#FBE88C"/>
<path d="M81.1638 178.904C77.9167 178.904 75.2848 176.272 75.2848 173.025V44.9914C75.2848 41.9263 76.206 39.0768 77.7835 36.7018H64.3712C56.0847 36.7018 49.367 43.4194 49.367 51.7059V184.995C49.367 193.282 56.0847 200 64.3712 200H135.628C143.915 200 150.633 193.282 150.633 184.995V178.904H81.1638V178.904Z" fill="#FBE372"/>
<path d="M134.641 185.805H65.6447C63.3798 185.805 61.5439 183.969 61.5439 181.704V124.324C61.5439 122.059 63.3798 120.223 65.6447 120.223H134.641C136.906 120.223 138.742 122.059 138.742 124.324V181.704C138.742 183.969 136.906 185.805 134.641 185.805V185.805Z" fill="#F3F1F3"/>
<path d="M81.1637 178.904C77.9167 178.904 75.2848 176.272 75.2848 173.025V120.223H65.6451C63.3802 120.223 61.5443 122.059 61.5443 124.324V181.704C61.5443 183.969 63.3802 185.805 65.6451 185.805H134.641C136.906 185.805 138.742 183.969 138.742 181.704V178.904H81.1637Z" fill="#E1DEE2"/>
<path d="M61.2581 102.554V51.706C61.2581 49.9865 62.6517 48.5929 64.3712 48.5929H135.629C137.348 48.5929 138.742 49.9869 138.742 51.706V102.554C138.742 104.274 137.348 105.667 135.629 105.667H64.3712C62.6517 105.668 61.2581 104.274 61.2581 102.554V102.554Z" fill="#CFEFFC"/>
<path d="M75.2848 48.5929H64.3712C62.6517 48.5929 61.2581 49.9865 61.2581 51.706V102.554C61.2581 104.274 62.6521 105.667 64.3712 105.667H75.2844V48.5929H75.2848Z" fill="#A9E4F9"/>
<path d="M92.0909 67.3934V88.6773C92.0909 90.0503 93.6565 90.8359 94.7572 90.0146L109.022 79.3729C109.917 78.7054 109.917 77.3653 109.022 76.6982L94.7572 66.0565C93.6569 65.2348 92.0909 66.0204 92.0909 67.3934Z" fill="#F3F1F3"/>
<path d="M114.57 172.604C105.179 175.114 95.5864 175.085 85.7906 172.52C83.2423 171.852 81.3084 169.784 80.7555 167.209C78.7075 157.665 78.7011 148.121 80.7377 138.577C81.2961 135.959 83.2839 133.862 85.8869 133.238C95.3367 130.973 104.883 131.026 114.52 133.265C117.154 133.877 119.228 135.93 119.789 138.575C121.576 147.006 121.496 156.552 119.548 167.214C119.073 169.815 117.124 171.922 114.57 172.604V172.604Z" fill="#E1DEE2"/>
<path d="M100 166.47C93.4865 166.47 88.187 161.171 88.187 154.657C88.187 152.824 88.5973 151.065 89.4062 149.43C90.1336 147.958 91.9165 147.355 93.3886 148.083C94.8603 148.811 95.4632 150.594 94.7354 152.066C94.3351 152.875 94.1326 153.747 94.1326 154.657C94.1326 157.893 96.7648 160.525 100 160.525C103.235 160.525 105.867 157.893 105.867 154.657C105.867 153.756 105.662 152.884 105.257 152.068C104.529 150.596 105.131 148.813 106.602 148.084C108.074 147.355 109.856 147.958 110.585 149.428C111.4 151.073 111.813 152.832 111.813 154.657C111.813 161.171 106.514 166.47 100 166.47V166.47Z" fill="#F3F1F3"/>
<path d="M100 149.469C98.3583 149.469 97.0273 148.138 97.0273 146.496V143.906C97.0273 142.264 98.3583 140.933 100 140.933C101.642 140.933 102.973 142.264 102.973 143.906V146.496C102.973 148.138 101.642 149.469 100 149.469V149.469Z" fill="#F3F1F3"/>
</g>
<defs>
<clipPath id="clip0_70_1724">
<rect width="200" height="200" fill="white"/>
</clipPath>
</defs>
</svg>
