<svg width="200" height="200" viewBox="0 0 200 200" fill="none" xmlns="http://www.w3.org/2000/svg">
<g clip-path="url(#clip0_70_1775)">
<path d="M118.125 16.8395L56.825 0.414504C50.3843 -1.31128 43.7644 2.51099 42.0386 8.95122L25.6132 70.2512C23.8875 76.6918 27.7097 83.3118 34.15 85.0376L95.45 101.463C101.891 103.188 108.51 99.3661 110.236 92.9258L126.662 31.6258C128.388 25.1856 124.566 18.5657 118.125 16.8395Z" fill="#FF5368"/>
<path d="M123.537 19.9656C119.512 21.048 116.157 24.1855 115.001 28.5011L101.961 77.1679C100.091 84.1453 92.9192 88.2859 85.9418 86.4164L37.275 73.3761C32.9578 72.2187 28.5649 73.5566 25.6149 76.5007C26.6977 80.5257 29.8344 83.8816 34.1504 85.0375L95.4504 101.462C101.891 103.188 108.511 99.366 110.237 92.9257L126.662 31.6257C127.819 27.3101 126.481 22.9156 123.537 19.9656Z" fill="#C5324F"/>
<path d="M174.387 168.374L157.962 107.074C156.236 100.633 149.616 96.8113 143.175 98.5371L81.8754 114.962C75.4348 116.688 71.6129 123.308 73.3387 129.748L89.7641 191.048C91.4899 197.489 98.1098 201.311 104.55 199.585L165.85 183.16C172.29 181.435 176.113 174.814 174.387 168.374Z" fill="#FF5368"/>
<path d="M157.961 107.074C156.805 102.758 153.45 99.6215 149.425 98.5387C146.48 101.489 145.143 105.883 146.3 110.199L159.34 158.865C161.209 165.843 157.069 173.014 150.091 174.884L101.425 187.925C97.1089 189.081 93.9722 192.436 92.8894 196.461C95.8398 199.405 100.234 200.743 104.55 199.586L165.85 183.161C172.29 181.435 176.112 174.815 174.386 168.375L157.961 107.074Z" fill="#C5324F"/>
<path d="M136.661 135.935C141.662 135.935 145.716 131.881 145.716 126.88C145.716 121.88 141.662 117.826 136.661 117.826C131.66 117.826 127.606 121.88 127.606 126.88C127.606 131.881 131.66 135.935 136.661 135.935Z" fill="#FFF9EB"/>
<path d="M111.049 180.292C116.05 180.292 120.104 176.238 120.104 171.237C120.104 166.237 116.05 162.183 111.049 162.183C106.048 162.183 101.995 166.237 101.995 171.237C101.995 176.238 106.048 180.292 111.049 180.292Z" fill="#FFF9EB"/>
<path d="M123.862 158.117C128.863 158.117 132.917 154.063 132.917 149.062C132.917 144.062 128.863 140.008 123.862 140.008C118.861 140.008 114.807 144.062 114.807 149.062C114.807 154.063 118.861 158.117 123.862 158.117Z" fill="#FFF9EB"/>
<path d="M63.3293 37.8168C68.3301 37.8168 72.384 33.7628 72.384 28.7621C72.384 23.7613 68.3301 19.7074 63.3293 19.7074C58.3286 19.7074 54.2747 23.7613 54.2747 28.7621C54.2747 33.7628 58.3286 37.8168 63.3293 37.8168Z" fill="#FFF9EB"/>
<path d="M98.3176 47.1875C103.318 47.1875 107.372 43.1336 107.372 38.1328C107.372 33.132 103.318 29.0781 98.3176 29.0781C93.3169 29.0781 89.2629 33.132 89.2629 38.1328C89.2629 43.1336 93.3169 47.1875 98.3176 47.1875Z" fill="#FFF9EB"/>
<path d="M53.957 72.7988C58.9578 72.7988 63.0117 68.7449 63.0117 63.7441C63.0117 58.7434 58.9578 54.6895 53.957 54.6895C48.9563 54.6895 44.9023 58.7434 44.9023 63.7441C44.9023 68.7449 48.9563 72.7988 53.957 72.7988Z" fill="#FFF9EB"/>
<path d="M88.9395 82.1765C93.9402 82.1765 97.9941 78.1226 97.9941 73.1218C97.9941 68.1211 93.9402 64.0671 88.9395 64.0671C83.9387 64.0671 79.8848 68.1211 79.8848 73.1218C79.8848 78.1226 83.9387 82.1765 88.9395 82.1765Z" fill="#FFF9EB"/>
</g>
<defs>
<clipPath id="clip0_70_1775">
<rect width="200" height="200" fill="white"/>
</clipPath>
</defs>
</svg>
