<svg width="200" height="200" viewBox="0 0 200 200" fill="none" xmlns="http://www.w3.org/2000/svg">
<path d="M75.092 154.476C67.7736 139.982 63.7432 120.582 63.7432 99.8488C63.7432 79.1156 67.7732 59.7152 75.092 45.2215C81.6627 32.2086 90.2822 24.739 98.7451 24.7195L102.651 18.4215L98.7451 13.0004C85.51 13.0164 73.3955 22.5812 64.6314 39.939C56.5018 56.039 52.0248 77.3156 52.0248 99.8484C52.0248 122.381 56.5022 143.657 64.6314 159.758C73.3955 177.116 85.51 186.681 98.7451 186.696L102.651 180.95L98.7451 174.977C90.2822 174.959 81.6627 167.489 75.092 154.476V154.476Z" fill="#FF936B"/>
<path d="M132.925 39.9395C124.153 22.5672 112.026 13 98.7783 13C98.7674 13 98.7564 13.0008 98.7451 13.0008V24.7195C98.7561 24.7195 98.7674 24.7188 98.7783 24.7188C107.252 24.7188 115.885 32.1918 122.464 45.2215C129.783 59.7152 133.813 79.1156 133.813 99.8488C133.813 120.582 129.783 139.982 122.464 154.476C115.885 167.506 107.252 174.979 98.7783 174.979C98.7674 174.979 98.7561 174.978 98.7451 174.978V186.697C98.7561 186.697 98.767 186.698 98.7783 186.698C112.026 186.698 124.153 177.13 132.925 159.758C141.055 143.658 145.531 122.382 145.531 99.8488C145.531 77.316 141.054 56.0398 132.925 39.9395V39.9395Z" fill="#FF6B6B"/>
<path d="M82.0295 127.17C72.6072 119.757 64.0982 111.648 56.9682 103.493C63.9154 94.9223 72.2549 86.4281 81.5662 78.516C87.4377 73.5266 93.1545 69.1734 98.7451 65.4L102.651 58.8594L98.7451 51.6336C91.6307 47.5789 84.3811 44.1816 77.5002 41.5852C62.3873 35.8828 49.3002 34.357 39.6549 37.1727L42.9385 48.4219C50.0232 46.3543 60.8279 47.8199 73.3631 52.55C78.0076 54.3023 82.7646 56.457 87.5701 58.959C82.985 62.2477 78.4353 65.7984 73.9779 69.5859C64.8268 77.3625 56.5342 85.7078 49.4529 94.1961C40.4869 82.1184 34.9869 70.484 34.5111 61.4445L22.8088 62.0605C23.3572 72.4789 28.6279 85.066 38.0521 98.4621C39.3068 100.246 40.6287 102.027 42.0041 103.803C38.4248 108.796 35.3033 113.784 32.7189 118.68C23.2818 136.559 21.9678 151.601 29.0178 161.035C32.7412 166.017 38.5881 169.088 45.9267 169.916C47.5748 170.102 49.3002 170.177 51.0994 170.143C59.9088 169.976 70.4564 167.193 81.9693 161.962C87.5787 159.414 93.0037 156.33 98.7451 152.793L102.651 145.936L98.7451 139C93.1154 135.485 87.5607 131.523 82.0295 127.17V127.17ZM47.24 158.271C43.14 157.808 40.1674 156.378 38.4049 154.019C34.3357 148.575 36.0842 137.409 43.0822 124.15C44.999 120.519 47.2471 116.824 49.785 113.109C57.0916 121.231 65.5365 129.105 74.783 136.38C79.0682 139.752 83.4287 142.914 87.8185 145.845C70.6869 155.523 56.1369 159.274 47.24 158.271V158.271Z" fill="#FFC178"/>
<path d="M165.818 115.761C162.977 110.753 159.556 105.674 155.639 100.616C159.923 94.634 163.543 88.6582 166.387 82.8203L155.852 77.6883C153.703 82.0996 151.003 86.668 147.836 91.2906C140.554 83.2027 132.107 75.3195 122.845 68.032C118.549 64.652 114.189 61.4953 109.807 58.5688C126.939 48.8895 141.49 45.1367 150.388 46.1418C154.488 46.6043 157.46 48.0344 159.223 50.393C160.372 51.9305 161.072 53.9305 161.304 56.3375L172.969 55.2125C172.528 50.6399 171.061 46.6578 168.61 43.3777C164.887 38.3957 159.04 35.3246 151.701 34.4969C141.989 33.4012 129.524 36.1516 115.658 42.4504C110.049 44.9988 104.486 48.0969 98.7451 51.6344V65.4008C104.376 68.9258 110.063 72.8871 115.598 77.2426C125.417 84.968 133.806 93.0008 140.679 100.855C133.699 109.469 125.317 118.032 116.061 125.897C110.196 130.881 104.329 135.23 98.7447 139.001V152.794C104.89 156.296 111.32 159.298 117.298 161.72C128.927 166.433 139.549 168.773 148.397 168.606C150.245 168.571 152.017 168.427 153.703 168.172C161.229 167.034 167.134 163.642 170.778 158.363C177.575 148.513 175.813 133.384 165.818 115.761V115.761ZM161.133 151.705C159.349 154.291 156.259 155.933 151.952 156.584C141.54 158.157 126.341 153.914 110.083 145.436C114.66 142.152 119.201 138.607 123.65 134.827C132.863 126.998 141.153 118.66 148.216 110.193C161.587 128.275 166.269 144.264 161.133 151.705V151.705Z" fill="#FF936B"/>
<path d="M31.7139 65.5742C23.0998 65.7367 15.9596 58.8605 15.7971 50.2465C15.6349 41.6324 22.5111 34.4922 31.1248 34.3297C39.7389 34.1672 46.8795 41.0433 47.0416 49.6574C47.2037 58.2715 40.3283 65.4117 31.7139 65.5742V65.5742Z" fill="#FF936B"/>
<path d="M165.763 84.0457C157.149 84.2082 150.008 77.3325 149.846 68.7184C149.684 60.1043 156.56 52.9641 165.174 52.8016C173.788 52.6391 180.928 59.5153 181.091 68.1293C181.253 76.7434 174.377 83.8832 165.763 84.0457Z" fill="#FF6B6B"/>
<path d="M81.1725 99.8488C81.1725 109.557 89.0705 117.455 98.7783 117.455L102.685 99.8488L98.7783 82.243C89.0701 82.243 81.1725 90.141 81.1725 99.8488Z" fill="#FFC178"/>
<path d="M116.384 99.8488C116.384 90.141 108.486 82.243 98.7783 82.243V117.455C108.486 117.455 116.384 109.557 116.384 99.8488Z" fill="#FF936B"/>
</svg>
