<svg width="200" height="200" viewBox="0 0 200 200" fill="none" xmlns="http://www.w3.org/2000/svg">
<g clip-path="url(#clip0_70_1552)">
<path d="M68.6032 174.274L46.8603 178.965L25.1175 174.274V44.4773L46.8603 39.9791L68.6032 44.4773V174.274Z" fill="#FFDFCF"/>
<path d="M59.0358 44.4773V174.274L61.0954 175.894L68.6032 174.274V44.4773L61.1187 42.9288L59.0358 44.4773Z" fill="#FFCEBF"/>
<path d="M40.0869 177.292C38.4201 177.292 37.0688 175.941 37.0688 174.274V44.4773C37.0688 42.8101 38.4201 41.4592 40.0869 41.4592C41.7537 41.4592 43.105 42.8101 43.105 44.4773V174.274C43.105 175.941 41.7537 177.292 40.0869 177.292Z" fill="#FCCD7F"/>
<path d="M53.6338 177.292C51.967 177.292 50.6157 175.941 50.6157 174.274V44.4773C50.6157 42.8101 51.967 41.4592 53.6338 41.4592C55.3006 41.4592 56.6519 42.8101 56.6519 44.4773V174.274C56.6519 175.941 55.3006 177.292 53.6338 177.292Z" fill="#FCCD7F"/>
<path d="M78.0032 1.45917H15.7175L18.8427 13.4914L46.8604 16.8652L74.8777 13.4914L78.0032 1.45917Z" fill="#FCCD7F"/>
<path d="M68.4358 1.45917L65.3102 13.4914L67.1006 14.4278L74.8776 13.4914L78.0032 1.45917H68.4358Z" fill="#F0B95F"/>
<path d="M12.3569 44.4773H14.6459C20.4294 44.4773 25.1179 39.7888 25.1179 34.0053L28.136 22.1473L27.4801 15.5051L18.8431 13.491H12.3569C5.53239 13.4914 0 19.0238 0 25.8479V32.1207C0 38.9453 5.53239 44.4773 12.3569 44.4773V44.4773Z" fill="#FFDFCF"/>
<path d="M12.5589 35.5473C10.8921 35.5473 9.54083 34.1964 9.54083 32.5292V29.0958C9.54083 25.2644 12.6575 22.1477 16.4885 22.1477H25.1175C26.7843 22.1477 28.1356 23.4986 28.1356 25.1658C28.1356 26.833 26.7843 28.1839 25.1175 28.1839H16.4885C15.9859 28.1839 15.577 28.5932 15.577 29.0958V32.5292C15.577 34.1964 14.2257 35.5473 12.5589 35.5473V35.5473Z" fill="#FCCD7F"/>
<path d="M93.7207 25.8471V32.1207C93.7207 38.9457 88.1875 44.4789 81.3626 44.4789C79.3533 44.4314 77.9416 44.6914 75.5919 43.8833C71.5195 42.4507 68.602 38.5674 68.602 34.004L65.3102 22.1489L68.602 14.2455L73.6885 13.6338L74.8797 13.493H81.3626C88.1875 13.493 93.7207 19.0222 93.7207 25.8471V25.8471Z" fill="#FFDFCF"/>
<path d="M93.7207 25.8471V32.1207C93.7207 38.9457 88.1875 44.4789 81.3626 44.4789C79.4833 44.4346 78.1272 44.66 76.0306 44.0242C81.2378 42.5715 85.0608 37.7948 85.0608 32.1207V25.8471C85.0608 19.5131 80.2922 14.2938 74.1513 13.5775L74.8797 13.493H81.3626C88.1875 13.493 93.7207 19.0222 93.7207 25.8471Z" fill="#FFCEBF"/>
<path d="M81.1618 35.5473C79.495 35.5473 78.1437 34.1964 78.1437 32.5292V29.0958C78.1437 28.5932 77.7348 28.1839 77.2318 28.1839H68.6028C66.936 28.1839 65.5847 26.833 65.5847 25.1658C65.5847 23.4986 66.936 22.1477 68.6028 22.1477H77.2318C81.0632 22.1477 84.1799 25.2644 84.1799 29.0958V32.5292C84.1799 34.1964 82.8286 35.5473 81.1618 35.5473Z" fill="#FCCD7F"/>
<path d="M68.602 33.1227V44.4789H25.1171V33.1227L46.8596 27.175L68.602 33.1227Z" fill="#9DC9EB"/>
<path d="M49.8777 33.1227V44.4789H43.8415V33.1227C43.8415 31.4567 45.1936 30.1046 46.8596 30.1046C48.5256 30.1046 49.8777 31.4567 49.8777 33.1227Z" fill="#7EBAE6"/>
<path d="M59.0358 33.124V44.4773H68.6032V33.124L62.5267 31.4616L59.0358 33.124Z" fill="#7EBAE6"/>
<path d="M68.6032 33.1239L56.6503 33.1227L53.6338 31.4616L50.6141 33.1227H43.105L40.3964 31.8966L37.0688 33.1239H25.1175V14.2467L27.4797 13.4913H65.3102L68.6032 14.2467V33.1239Z" fill="#FFDFCF"/>
<path d="M59.0358 13.4913H68.6032V33.1239H59.0358V13.4913Z" fill="#FFCEBF"/>
<path d="M61.0954 174.274H23.0579C20.73 174.274 18.843 176.161 18.843 178.489V185.758L46.8604 188.029L65.3107 185.758L70.5907 176.088C70.5907 176.089 63.4233 174.274 61.0954 174.274V174.274Z" fill="#9DC9EB"/>
<path d="M70.6628 174.274H61.0954C63.4233 174.274 65.3103 176.161 65.3103 178.489V185.758L67.6748 186.342L74.8777 185.758V178.489C74.8777 176.161 72.9907 174.274 70.6628 174.274Z" fill="#7EBAE6"/>
<path d="M77.8966 198.541H15.8237L18.8426 185.759H74.8776L77.8966 198.541Z" fill="#FCCD7F"/>
<path d="M74.8776 185.759H65.3102L68.3296 198.541H77.8966L74.8776 185.759Z" fill="#F0B95F"/>
<path d="M43.105 33.1227H37.0688C37.0688 28.3783 33.5678 24.0966 30.6342 21.34C28.268 19.1187 21.5915 15.5155 18.843 13.4913H27.4801C34.3911 16.8652 43.105 25.8591 43.105 33.1227V33.1227Z" fill="#F0B95F"/>
<path d="M74.8777 13.4929C71.7509 15.5171 65.4547 19.1187 63.0845 21.34C60.1509 24.0966 56.6499 28.3783 56.6499 33.1227H50.6137C50.6137 25.8591 58.3545 17.1485 65.3103 13.4913L74.8777 13.4929Z" fill="#F0B95F"/>
<path d="M174.883 174.274L153.14 178.965L131.397 174.274V44.4773L153.14 39.9791L174.883 44.4773V174.274Z" fill="#FFDFCF"/>
<path d="M165.315 44.4773V174.274L167.375 175.894L174.882 174.274V44.4773L167.398 42.9288L165.315 44.4773Z" fill="#FFCEBF"/>
<path d="M146.366 177.292C144.699 177.292 143.348 175.941 143.348 174.274V44.4773C143.348 42.8101 144.699 41.4592 146.366 41.4592C148.033 41.4592 149.384 42.8101 149.384 44.4773V174.274C149.384 175.941 148.033 177.292 146.366 177.292Z" fill="#FCCD7F"/>
<path d="M159.913 177.292C158.246 177.292 156.895 175.941 156.895 174.274V44.4773C156.895 42.8101 158.246 41.4592 159.913 41.4592C161.58 41.4592 162.931 42.8101 162.931 44.4773V174.274C162.931 175.941 161.58 177.292 159.913 177.292Z" fill="#FCCD7F"/>
<path d="M184.282 1.45917H121.997L125.122 13.4914L153.14 16.8652L181.157 13.4914L184.282 1.45917Z" fill="#FCCD7F"/>
<path d="M174.715 1.45917L171.59 13.4914L173.38 14.4278L181.157 13.4914L184.282 1.45917H174.715Z" fill="#F0B95F"/>
<path d="M118.636 44.4773H120.925C126.709 44.4773 131.397 39.7888 131.397 34.0053L134.415 22.1473L133.759 15.5051L125.122 13.491H118.636C111.812 13.491 106.279 19.0234 106.279 25.8479V32.1207C106.279 38.9453 111.812 44.4773 118.636 44.4773Z" fill="#FFDFCF"/>
<path d="M118.838 35.5473C117.171 35.5473 115.82 34.1964 115.82 32.5292V29.0958C115.82 25.2644 118.937 22.1477 122.768 22.1477H131.397C133.064 22.1477 134.415 23.4986 134.415 25.1658C134.415 26.833 133.064 28.1839 131.397 28.1839H122.768C122.265 28.1839 121.856 28.5932 121.856 29.0958V32.5292C121.856 34.1964 120.505 35.5473 118.838 35.5473V35.5473Z" fill="#FCCD7F"/>
<path d="M200 25.8471V32.1207C200 38.9457 194.467 44.4789 187.642 44.4789C185.633 44.4314 184.221 44.6914 181.871 43.8833C177.799 42.4507 174.881 38.5674 174.881 34.004L171.59 22.1489L174.881 14.2455L179.968 13.6338L181.159 13.493H187.642C194.467 13.493 200 19.0222 200 25.8471V25.8471Z" fill="#FFDFCF"/>
<path d="M200 25.8471V32.1207C200 38.9457 194.467 44.4789 187.642 44.4789C185.763 44.4346 184.406 44.66 182.31 44.0242C187.517 42.5715 191.34 37.7948 191.34 32.1207V25.8471C191.34 19.5131 186.571 14.2938 180.431 13.5775L181.159 13.493H187.642C194.467 13.493 200 19.0222 200 25.8471Z" fill="#FFCEBF"/>
<path d="M187.441 35.5473C185.775 35.5473 184.423 34.1964 184.423 32.5292V29.0958C184.423 28.5932 184.014 28.1839 183.511 28.1839H174.882C173.216 28.1839 171.864 26.833 171.864 25.1658C171.864 23.4986 173.216 22.1477 174.882 22.1477H183.511C187.343 22.1477 190.46 25.2644 190.46 29.0958V32.5292C190.46 34.1964 189.108 35.5473 187.441 35.5473Z" fill="#FCCD7F"/>
<path d="M174.881 33.1227V44.4789H131.396V33.1227L153.139 27.175L174.881 33.1227Z" fill="#9DC9EB"/>
<path d="M156.157 33.1227V44.4789H150.121V33.1227C150.121 31.4567 151.473 30.1046 153.139 30.1046C154.805 30.1046 156.157 31.4567 156.157 33.1227Z" fill="#7EBAE6"/>
<path d="M165.315 33.124V44.4773H174.882V33.124L168.806 31.4616L165.315 33.124Z" fill="#7EBAE6"/>
<path d="M174.883 33.1239L162.93 33.1227L159.913 31.4616L156.893 33.1227H149.384L146.676 31.8966L143.348 33.1239H131.397V14.2467L133.759 13.4913H171.59L174.883 14.2467V33.1239Z" fill="#FFDFCF"/>
<path d="M165.315 13.4913H174.882V33.1239H165.315V13.4913Z" fill="#FFCEBF"/>
<path d="M167.375 174.274H129.337C127.009 174.274 125.122 176.161 125.122 178.489V185.758L153.14 188.029L176.043 185.758L175.656 176.243C175.656 176.243 169.703 174.274 167.375 174.274V174.274Z" fill="#9DC9EB"/>
<path d="M176.942 174.274H167.375C169.703 174.274 171.59 176.161 171.59 178.489V185.758L173.954 186.342L181.157 185.758V178.489C181.157 176.161 179.27 174.274 176.942 174.274Z" fill="#7EBAE6"/>
<path d="M184.176 198.541H122.103L125.122 185.759H181.157L184.176 198.541Z" fill="#FCCD7F"/>
<path d="M181.157 185.759H171.59L174.609 198.541H184.176L181.157 185.759Z" fill="#F0B95F"/>
<path d="M149.384 33.1227H143.348C143.348 28.3783 139.847 24.0966 136.913 21.34C134.547 19.1187 127.871 15.5155 125.122 13.4913H133.759C140.67 16.8652 149.384 25.8591 149.384 33.1227Z" fill="#F0B95F"/>
<path d="M181.157 13.4929C178.031 15.5171 171.734 19.1187 169.364 21.34C166.431 24.0966 162.93 28.3783 162.93 33.1227H156.893C156.893 25.8591 164.634 17.1485 171.59 13.4913L181.157 13.4929Z" fill="#F0B95F"/>
</g>
<defs>
<clipPath id="clip0_70_1552">
<rect width="200" height="200" fill="white"/>
</clipPath>
</defs>
</svg>
