<svg width="200" height="200" viewBox="0 0 200 200" fill="none" xmlns="http://www.w3.org/2000/svg">
<g clip-path="url(#clip0_70_1306)">
<path d="M195.05 35.6437H92.5742H4.95039C2.21641 35.6437 0 37.8598 0 40.5941V159.406C0 162.14 2.21641 164.356 4.95039 164.356H92.5742H195.05C197.784 164.356 200 162.14 200 159.406V40.5941C200 37.8598 197.784 35.6437 195.05 35.6437Z" fill="#5AC2AD"/>
<path d="M195.05 35.6437H92.5742V164.357H195.05C197.784 164.357 200 162.14 200 159.406V40.5941C200 37.8598 197.784 35.6437 195.05 35.6437Z" fill="#1DA49C"/>
<path d="M107.426 35.6437H92.5742V164.357H107.426V35.6437Z" fill="#198F88"/>
<path d="M100 68.8117C97.441 68.8117 94.9555 69.1281 92.5742 69.7121V85.4558C94.8039 84.3129 97.3266 83.6633 100 83.6633C109.008 83.6633 116.337 90.9922 116.337 100C116.337 109.008 109.008 116.337 100 116.337C97.3266 116.337 94.8039 115.687 92.5742 114.544V130.288C94.9555 130.872 97.441 131.188 100 131.188C117.197 131.188 131.188 117.197 131.188 100C131.188 82.8027 117.197 68.8117 100 68.8117Z" fill="#198F88"/>
<path d="M83.6633 100C83.6633 93.6652 87.2898 88.1648 92.5742 85.4558V69.7121C78.9516 73.0531 68.8117 85.3617 68.8117 99.9996C68.8117 114.637 78.9512 126.946 92.5742 130.287V114.543C87.2902 111.835 83.6633 106.335 83.6633 100Z" fill="#1DA49C"/>
<path d="M200 76.2375H174.545V123.762H200V76.2375Z" fill="#198F88"/>
<path d="M25.4555 76.2375H0V123.762H25.4555V76.2375Z" fill="#1DA49C"/>
</g>
<defs>
<clipPath id="clip0_70_1306">
<rect width="200" height="200" fill="white"/>
</clipPath>
</defs>
</svg>
