<svg width="14" height="14" viewBox="0 0 14 14" fill="none" xmlns="http://www.w3.org/2000/svg">
<g clip-path="url(#clip0_57_20958)">
<path d="M7.00002 14C10.866 14 14 10.866 14 7.00002C14 3.13401 10.866 0 7.00002 0C3.13401 0 0 3.13401 0 7.00002C0 10.866 3.13401 14 7.00002 14Z" fill="#42D13F"/>
<path d="M14 7.00002C14 10.85 10.85 14 7.00002 14C4.76878 14 2.79999 12.9938 1.53123 11.375C2.71248 12.3375 4.24373 12.9063 5.90622 12.9063C9.75623 12.9063 12.9062 9.7563 12.9062 5.90628C12.9062 4.2438 12.3375 2.71254 11.375 1.53129C12.9938 2.79999 14 4.76875 14 7.00002Z" fill="#35BB33"/>
<path d="M10.8063 4.98749L6.25626 9.97501C5.95 10.325 5.42502 10.325 5.11875 9.97501L3.19374 7.83126C2.93125 7.52499 2.93125 7.04376 3.23749 6.73749C3.54375 6.475 4.02499 6.475 4.33125 6.78124L5.68751 8.31249L9.66875 3.98124C9.97501 3.67498 10.4563 3.63124 10.7625 3.9375C11.0687 4.19999 11.0687 4.725 10.8063 4.98749Z" fill="white"/>
</g>
<defs>
<clipPath id="clip0_57_20958">
<rect width="14" height="14" fill="white"/>
</clipPath>
</defs>
</svg>
