<svg width="15" height="14" viewBox="0 0 15 14" fill="none" xmlns="http://www.w3.org/2000/svg">
<g clip-path="url(#clip0_57_20962)">
<path d="M7.43752 14C11.3035 14 14.4375 10.866 14.4375 7.00002C14.4375 3.13401 11.3035 0 7.43752 0C3.57151 0 0.4375 3.13401 0.4375 7.00002C0.4375 10.866 3.57151 14 7.43752 14Z" fill="#E24C4B"/>
<path d="M14.4375 6.99998C14.4375 10.85 11.2875 14 7.43751 14C5.20627 14 3.23752 12.9937 1.96875 11.375C3.15 12.3375 4.68126 12.9063 6.34374 12.9063C10.1938 12.9063 13.3438 9.75626 13.3438 5.90624C13.3438 4.24376 12.775 2.7125 11.8125 1.53125C13.4313 2.79996 14.4375 4.76871 14.4375 6.99998Z" fill="#D1403F"/>
<path d="M10.6312 10.1937C10.3687 10.4562 9.93122 10.4562 9.66873 10.1937L7.43749 7.96249L5.20625 10.1937C4.94376 10.4562 4.50623 10.4562 4.24374 10.1937C3.98125 9.93124 3.98125 9.49372 4.24374 9.23123L6.47498 6.99999L4.24374 4.76875C3.98125 4.50626 3.98125 4.06873 4.24374 3.80624C4.50623 3.54375 4.94376 3.54375 5.20625 3.80624L7.43749 6.03748L9.66873 3.80624C9.93122 3.54375 10.3687 3.54375 10.6312 3.80624C10.8937 4.06873 10.8937 4.50626 10.6312 4.76875L8.39999 6.99999L10.6312 9.23123C10.8937 9.49372 10.8937 9.93121 10.6312 10.1937Z" fill="white"/>
</g>
<defs>
<clipPath id="clip0_57_20962">
<rect width="14" height="14" fill="white" transform="translate(0.4375)"/>
</clipPath>
</defs>
</svg>
