<svg width="14" height="14" viewBox="0 0 14 14" fill="none" xmlns="http://www.w3.org/2000/svg">
<g clip-path="url(#clip0_57_20958)">
<path d="M7.00002 14C10.866 14 14 10.866 14 7.00002C14 3.13401 10.866 0 7.00002 0C3.13401 0 0 3.13401 0 7.00002C0 10.866 3.13401 14 7.00002 14Z" fill="#42D13F"/>
<path d="M14 6.99998C14 10.85 10.85 14 7.00001 14C4.76877 14 2.80002 12.9937 1.53125 11.375C2.7125 12.3375 4.24376 12.9063 5.90624 12.9063C9.75626 12.9063 12.9063 9.75626 12.9063 5.90624C12.9063 4.24376 12.3375 2.7125 11.375 1.53125C12.9938 2.79996 14 4.76871 14 6.99998Z" fill="#35BB33"/>
<path d="M10.8063 4.9875L6.25631 9.97502C5.95004 10.325 5.42506 10.325 5.1188 9.97502L3.19379 7.83127C2.9313 7.525 2.9313 7.04377 3.23753 6.7375C3.5438 6.47501 4.02503 6.47501 4.3313 6.78125L5.68755 8.3125L9.6688 3.98125C9.97506 3.67499 10.4563 3.63125 10.7626 3.93751C11.0688 4.2 11.0688 4.72501 10.8063 4.9875Z" fill="white"/>
</g>
<defs>
<clipPath id="clip0_57_20958">
<rect width="14" height="14" fill="white"/>
</clipPath>
</defs>
</svg>
