<svg width="16" height="16" viewBox="0 0 16 16" fill="none" xmlns="http://www.w3.org/2000/svg">
<path d="M3.5 8.5L13.5 8.5C13.6326 8.5 13.7598 8.44732 13.8536 8.35355C13.9473 8.25979 14 8.13261 14 8C14 7.86739 13.9473 7.74021 13.8536 7.64645C13.7598 7.55268 13.6326 7.5 13.5 7.5L3.5 7.5C3.36739 7.5 3.24021 7.55268 3.14645 7.64645C3.05268 7.74021 3 7.86739 3 8C3 8.13261 3.05268 8.25979 3.14645 8.35355C3.24021 8.44732 3.36739 8.5 3.5 8.5Z" fill="white"/>
<path d="M3.70698 8L7.85398 3.854C7.94786 3.76012 8.00061 3.63278 8.00061 3.5C8.00061 3.36723 7.94786 3.23989 7.85398 3.146C7.76009 3.05212 7.63275 2.99937 7.49998 2.99937C7.3672 2.99937 7.23986 3.05212 7.14598 3.146L2.64598 7.646C2.59941 7.69245 2.56247 7.74762 2.53727 7.80837C2.51206 7.86911 2.49908 7.93423 2.49908 8C2.49908 8.06577 2.51206 8.13089 2.53727 8.19164C2.56247 8.25238 2.59941 8.30756 2.64598 8.354L7.14598 12.854C7.23986 12.9479 7.3672 13.0006 7.49998 13.0006C7.63275 13.0006 7.76009 12.9479 7.85398 12.854C7.94786 12.7601 8.00061 12.6328 8.00061 12.5C8.00061 12.3672 7.94786 12.2399 7.85398 12.146L3.70698 8Z" fill="white"/>
</svg>
