<svg width="16" height="16" viewBox="0 0 16 16" fill="none" xmlns="http://www.w3.org/2000/svg">
<path d="M12.9991 7.50001H2.99908C2.86648 7.50001 2.7393 7.55269 2.64553 7.64645C2.55176 7.74022 2.49908 7.8674 2.49908 8.00001C2.49908 8.13262 2.55176 8.25979 2.64553 8.35356C2.7393 8.44733 2.86648 8.50001 2.99908 8.50001H12.9991C13.1317 8.50001 13.2589 8.44733 13.3526 8.35356C13.4464 8.25979 13.4991 8.13262 13.4991 8.00001C13.4991 7.8674 13.4464 7.74022 13.3526 7.64645C13.2589 7.55269 13.1317 7.50001 12.9991 7.50001Z" fill="white"/>
<path d="M12.7921 8.00001L8.64511 12.146C8.55122 12.2399 8.49848 12.3672 8.49848 12.5C8.49848 12.6328 8.55122 12.7601 8.64511 12.854C8.73899 12.9479 8.86633 13.0006 8.99911 13.0006C9.13188 13.0006 9.25922 12.9479 9.35311 12.854L13.8531 8.35401C13.8997 8.30756 13.9366 8.25238 13.9618 8.19164C13.987 8.13089 14 8.06577 14 8.00001C14 7.93424 13.987 7.86912 13.9618 7.80837C13.9366 7.74763 13.8997 7.69245 13.8531 7.64601L9.35311 3.14601C9.25922 3.05212 9.13188 2.99937 8.99911 2.99937C8.86633 2.99937 8.73899 3.05212 8.64511 3.14601C8.55122 3.23989 8.49848 3.36723 8.49848 3.50001C8.49848 3.63278 8.55122 3.76012 8.64511 3.85401L12.7921 8.00001Z" fill="white"/>
</svg>
