<svg width="25" height="24" viewBox="0 0 25 24" fill="none" xmlns="http://www.w3.org/2000/svg">
<path d="M6.5 13C6.5 11.35 7.17 9.85 8.26 8.76L6.84 7.34C5.34139 8.84245 4.49987 10.8779 4.5 13C4.5 17.08 7.55 20.44 11.5 20.93V18.91C8.67 18.43 6.5 15.97 6.5 13ZM20.5 13C20.5 8.58 16.92 5 12.5 5C12.44 5 12.38 5.01 12.32 5.01L13.41 3.92L12 2.5L8.5 6L12 9.5L13.41 8.09L12.33 7.01C12.39 7.01 12.45 7 12.5 7C15.81 7 18.5 9.69 18.5 13C18.5 15.97 16.33 18.43 13.5 18.91V20.93C17.45 20.44 20.5 17.08 20.5 13Z" fill="white"/>
</svg>
