<svg width="137" height="24" viewBox="0 0 137 24" fill="none" xmlns="http://www.w3.org/2000/svg">
<path d="M42.544 18.736C41.952 18.992 41.152 19.12 40.144 19.12C37.376 19.12 35.992 17.736 35.992 14.968V9.4H34.24V6.832H35.992V3.952H39.496V6.832H42.328V9.4H39.496V14.992C39.496 15.424 39.616 15.752 39.856 15.976C40.112 16.2 40.44 16.312 40.84 16.312C41.48 16.312 42.048 16.152 42.544 15.832V18.736Z" fill="white"/>
<path d="M48.1778 19H44.6738L44.6978 6.832H48.1778V9.088C48.4018 8.384 48.7698 7.824 49.2818 7.408C49.8098 6.976 50.4178 6.76 51.1058 6.76C51.4898 6.76 51.7938 6.792 52.0178 6.856V10.168C51.6338 9.992 51.1938 9.904 50.6978 9.904C49.9458 9.904 49.3378 10.184 48.8738 10.744C48.4098 11.288 48.1778 12.016 48.1778 12.928V19Z" fill="white"/>
<path d="M57.2046 19H53.7006V6.832H57.2046V19ZM56.8926 1.864C57.2926 2.264 57.4926 2.744 57.4926 3.304C57.4926 3.864 57.2926 4.344 56.8926 4.744C56.4926 5.144 56.0126 5.344 55.4526 5.344C54.8926 5.344 54.4126 5.144 54.0126 4.744C53.6126 4.344 53.4126 3.864 53.4126 3.304C53.4126 2.744 53.6126 2.264 54.0126 1.864C54.4126 1.464 54.8926 1.264 55.4526 1.264C56.0126 1.264 56.4926 1.464 56.8926 1.864Z" fill="white"/>
<path d="M66.9814 19H63.3814L58.8934 6.832H62.5654L64.1494 12.016C64.3894 12.816 64.5974 13.576 64.7734 14.296C64.9494 15 65.0614 15.512 65.1094 15.832L65.2054 16.288C65.3494 15.248 65.7094 13.824 66.2854 12.016L67.9174 6.832H71.5174L66.9814 19Z" fill="white"/>
<path d="M76.7046 19H73.2006V6.832H76.7046V19ZM76.3926 1.864C76.7926 2.264 76.9926 2.744 76.9926 3.304C76.9926 3.864 76.7926 4.344 76.3926 4.744C75.9926 5.144 75.5126 5.344 74.9526 5.344C74.3926 5.344 73.9126 5.144 73.5126 4.744C73.1126 4.344 72.9126 3.864 72.9126 3.304C72.9126 2.744 73.1126 2.264 73.5126 1.864C73.9126 1.464 74.3926 1.264 74.9526 1.264C75.5126 1.264 75.9926 1.464 76.3926 1.864Z" fill="white"/>
<path d="M84.1774 16.6C84.6734 16.6 85.0574 16.448 85.3294 16.144C85.6014 15.84 85.7374 15.424 85.7374 14.896V14.008H84.6094C84.0174 14.008 83.5614 14.136 83.2414 14.392C82.9214 14.648 82.7614 14.976 82.7614 15.376C82.7614 16.192 83.2334 16.6 84.1774 16.6ZM85.9054 17.512C85.3934 18.552 84.3854 19.072 82.8814 19.072C81.6974 19.072 80.7694 18.736 80.0974 18.064C79.4414 17.392 79.1134 16.552 79.1134 15.544C79.1134 14.376 79.5374 13.472 80.3854 12.832C81.2494 12.176 82.5214 11.848 84.2014 11.848H85.7374V11.008C85.7374 9.984 85.0574 9.472 83.6974 9.472C82.3854 9.472 81.1694 9.84 80.0494 10.576V7.432C81.0094 6.888 82.3934 6.616 84.2014 6.616C85.9294 6.616 87.2174 6.992 88.0654 7.744C88.9134 8.48 89.3374 9.632 89.3374 11.2V19H85.9054V17.512Z" fill="white"/>
<path d="M95.0404 12.952C95.0404 13.928 95.2964 14.72 95.8084 15.328C96.3204 15.92 96.9444 16.216 97.6804 16.216C98.4804 16.216 99.1284 15.904 99.6244 15.28C100.12 14.656 100.368 13.824 100.368 12.784C100.368 11.776 100.096 10.992 99.5524 10.432C99.0244 9.872 98.3924 9.592 97.6564 9.592C96.9204 9.592 96.2964 9.888 95.7844 10.48C95.2884 11.072 95.0404 11.896 95.0404 12.952ZM103.872 23.488H100.368V17.104C99.5524 18.464 98.3364 19.144 96.7204 19.144C95.0884 19.144 93.8084 18.552 92.8804 17.368C91.9524 16.184 91.4884 14.688 91.4884 12.88C91.4884 10.976 91.9684 9.472 92.9284 8.368C93.8884 7.248 95.1604 6.688 96.7444 6.688C98.3284 6.688 99.5364 7.36 100.368 8.704V6.832H103.872V23.488Z" fill="white"/>
<path d="M117.8 19H114.296V17.056C113.656 18.416 112.424 19.096 110.6 19.096C109.352 19.096 108.376 18.752 107.672 18.064C106.984 17.36 106.64 16.328 106.64 14.968V6.832H110.144V14.176C110.144 15.6 110.768 16.312 112.016 16.312C113.536 16.312 114.296 15.296 114.296 13.264V6.832H117.8V19Z" fill="white"/>
<path d="M124.306 19H120.802V6.832H124.306V19ZM123.994 1.864C124.394 2.264 124.594 2.744 124.594 3.304C124.594 3.864 124.394 4.344 123.994 4.744C123.594 5.144 123.114 5.344 122.554 5.344C121.994 5.344 121.514 5.144 121.114 4.744C120.714 4.344 120.514 3.864 120.514 3.304C120.514 2.744 120.714 2.264 121.114 1.864C121.514 1.464 121.994 1.264 122.554 1.264C123.114 1.264 123.594 1.464 123.994 1.864Z" fill="white"/>
<path d="M136.411 19H126.835V16.48L132.163 9.52H127.051V6.832H136.123V9.256L130.795 16.288H136.411V19Z" fill="white"/>
<path fill-rule="evenodd" clip-rule="evenodd" d="M6.10114 0C6.23374 0 6.36092 0.0526788 6.45469 0.146447L12.9396 6.63134C13.1348 6.8266 13.1348 7.14319 12.9396 7.33845L0.853553 19.4244C0.53857 19.7394 0 19.5163 0 19.0709V0.5C0 0.223858 0.223858 0 0.5 0H6.10114Z" fill="white"/>
<path d="M17.3929 11.0847C17.1976 10.8894 16.881 10.8894 16.6858 11.0847L4.62395 23.1464C4.30897 23.4614 4.53205 24 4.9775 24H23.4999C23.776 24 23.9999 23.7761 23.9999 23.5V17.8988C23.9999 17.7662 23.9472 17.639 23.8534 17.5453L17.3929 11.0847Z" fill="white"/>
<path d="M13.5093 0C13.0638 0 12.8407 0.53857 13.1557 0.853553L23.1464 10.8443C23.4614 11.1593 24 10.9362 24 10.4908L23.9999 0.499995C23.9999 0.223855 23.776 0 23.4999 0H13.5093Z" fill="white"/>
</svg>
