<svg xmlns:dc="http://purl.org/dc/elements/1.1/" xmlns:cc="http://creativecommons.org/ns#" xmlns:rdf="http://www.w3.org/1999/02/22-rdf-syntax-ns#" xmlns:svg="http://www.w3.org/2000/svg" xmlns="http://www.w3.org/2000/svg" viewBox="0 0 400 400" fill="none"><metadata><rdf:RDF><cc:Work><dc:format>image/svg+xml</dc:format><dc:type rdf:resource="http://purl.org/dc/dcmitype/StillImage"/><dc:title>Adventurer Neutral</dc:title><dc:creator><cc:Agent><dc:title>Lisa Wischofsky</dc:title></cc:Agent></dc:creator><dc:source>https://www.instagram.com/lischis_adventures/</dc:source><cc:license rdf:resource="https://creativecommons.org/licenses/by/4.0/"/></cc:Work><cc:License rdf:about="https://creativecommons.org/licenses/by/4.0/"><cc:permits rdf:resource="https://creativecommons.org/ns#Reproduction"/><cc:permits rdf:resource="https://creativecommons.org/ns#Distribution"/><cc:permits rdf:resource="https://creativecommons.org/ns#DerivativeWorks"/><cc:requires rdf:resource="https://creativecommons.org/ns#Notice"/><cc:requires rdf:resource="https://creativecommons.org/ns#Attribution"/></cc:License></rdf:RDF></metadata><mask id="avatarsRadiusMask"><rect width="400" height="400" rx="0" ry="0" x="0" y="0" fill="#fff"/></mask><g mask="url(#avatarsRadiusMask)"><rect fill="rgba(158, 86, 34, 1)" width="400" height="400" x="0" y="0"/><g transform="translate(-279 -322)"><path d="M617.23 468.82c1.16 1.34 2.37 2.36 2.84 4.14 4.46 17.23 1.58 36.09-7.98 51.11-8.01 12.77-20.52 22.56-34.83 27.28-11.68 3.74-24.33 4.31-36.24 1.27-17.06-4.16-32.11-15.59-40.77-30.86-7.18-12.23-9.85-26.73-8.06-40.75.53-3.41 1.75-7.26 5.57-8.09 8.61-1.53 17.56-1.34 26.27-2.27 24.31-1.49 48.65-2.37 73.01-2.08 6.75-.37 13.45.4 20.19.25Z" fill="#000"/><path d="M607.09 474.28c2.48.12 4.97.24 7.45.37 3.8 14.15 1.78 29.85-5.17 42.73-6.79 12.81-18.41 23-32.1 27.84-14.68 5.57-31.38 4.73-45.56-1.92-13.38-6.21-24.24-17.42-29.82-31.09-4.19-10.23-5.98-22.11-3.62-32.99 1.86-.72 3.69-1.32 5.7-1.4 16.9-1.37 33.84-2.38 50.78-3.11-.41 5.34-.18 10.53 2.09 15.47 3.42 7.65 10.45 13.28 18.62 15.04 4.89.87 9.94.6 14.61-1.13 8.19-2.81 14.36-9.94 16.48-18.26.92-3.9.66-7.59.54-11.55Z" fill="#fff"/><path d="M432.03 480.67c2.01-.23 3.79.3 5.74.68 4.2 9.05 4.82 19.93 3.38 29.69-2.48 14.77-11.15 28.19-23.63 36.48-10.93 7.31-24.46 10.57-37.51 8.79-15.32-1.77-29.51-10.46-38.25-23.14-6.82-9.71-10.02-21.43-10.01-33.24 6.53-3.27 13.18-3.72 20.49-5.47 20.5-4.17 41.07-8.1 61.75-11.22 6-.99 11.97-2.04 18.04-2.57Z" fill="#000"/><path d="M433.71 486.06c1.44 5.27 2.74 10.43 2.6 15.94-.2 9.49-3.01 19.08-8.31 26.99-9.89 15.07-28.07 23.78-46.01 21.88-12.38-1.34-24.01-7.28-32.17-16.71-7.5-8.47-11.57-19.33-12.24-30.58 14.45-3.54 29.14-6.22 43.76-9.01 1.32 6.49 4.55 12.28 10.11 16.03 9.04 6.32 21.92 5.38 29.9-2.26 6.12-5.72 8.04-13.57 7.2-21.73 1.72-.19 3.44-.38 5.16-.55Z" fill="#fff"/></g><g transform="translate(-279 -322)"><g fill="#000"><path d="M501.99 384.96c9.91.12 19.87 3.23 28.83 7.31 3.36 1.88 7.05 4.01 7.31 8.29-5.14-.86-10.14-2.06-15.38-2.28-11.6-.68-23.13 1.36-33.25 7.23-2.54 1.41-4.95 3.26-7.64 4.35-1.8.27-3.92-1.99-3.94-3.73-.18-5.81 1.95-11.92 6.53-15.7 5.03-4.23 11.15-5.3 17.54-5.47ZM414.03 402.61c5.81.15 10.93 5.3 12.51 10.64.8 2.63-.46 5.72-3.53 5.61-8.82.21-18.21.03-26.81 2.26-7.52 2.01-14.74 6.71-21.36 10.74-1.22.81-2.57.96-3.98 1.22.33-1.93.64-3.66 1.94-5.21 3.28-4.33 6.78-8.58 10.74-12.3 5.88-5.17 13.01-8.96 20.32-11.66 3.23-1.11 6.76-1.58 10.17-1.3Z"/></g></g><g transform="translate(-279 -322)"><path d="M505.05 609.63c4.67 1.28 8.87 4.71 12.16 8.17 1.37 1.66 3.56 3.88 3.05 6.2-.46 2.46-3.75 3.02-5.05.83-2.59-3.53-5.52-6.54-9.45-8.58-2.27-1.46-6.72-.53-6.61-4.14.48-3.02 3.52-2.9 5.9-2.48ZM498 622.96c4.97 1.51 8.45 5.86 8.78 11.06 1.3 13.18-9.39 25.8-21.75 29.19-12.46 3.66-28.87-1.1-35.07-13.17-2.47-4.21-3.73-9.26-1.94-13.96 1.78-4.05 5.82-5.66 9.97-6.1 5.09-.59 9.55 1.11 13.9 3.54 3.82-4.04 7.74-7.59 12.91-9.81 4.07-1.76 8.96-1.98 13.2-.75Z" fill="#000"/><path d="M498.91 630.09c3.25 3.38 2.26 9.5.47 13.39-4.28 10.05-15.11 16.13-25.9 14.99-7.3-1.19-14.31-4.11-18.2-10.76-1.43-2.56-3.43-6.58-2.01-9.44 2.28-3.76 8.77-3.17 12.28-1.81 2.75.77 5.53 4.09 8.39 3.59 3.67-3.56 6.48-7.47 11.18-9.88 4.32-2.4 9.63-3.3 13.79-.08Z" fill="#8F2E45"/></g><g transform="translate(-279 -322)"/></g></svg>