<svg xmlns:dc="http://purl.org/dc/elements/1.1/" xmlns:cc="http://creativecommons.org/ns#" xmlns:rdf="http://www.w3.org/1999/02/22-rdf-syntax-ns#" xmlns:svg="http://www.w3.org/2000/svg" xmlns="http://www.w3.org/2000/svg" viewBox="0 0 400 400" fill="none"><metadata><rdf:RDF><cc:Work><dc:format>image/svg+xml</dc:format><dc:type rdf:resource="http://purl.org/dc/dcmitype/StillImage"/><dc:title>Adventurer Neutral</dc:title><dc:creator><cc:Agent><dc:title>Lisa Wischofsky</dc:title></cc:Agent></dc:creator><dc:source>https://www.instagram.com/lischis_adventures/</dc:source><cc:license rdf:resource="https://creativecommons.org/licenses/by/4.0/"/></cc:Work><cc:License rdf:about="https://creativecommons.org/licenses/by/4.0/"><cc:permits rdf:resource="https://creativecommons.org/ns#Reproduction"/><cc:permits rdf:resource="https://creativecommons.org/ns#Distribution"/><cc:permits rdf:resource="https://creativecommons.org/ns#DerivativeWorks"/><cc:requires rdf:resource="https://creativecommons.org/ns#Notice"/><cc:requires rdf:resource="https://creativecommons.org/ns#Attribution"/></cc:License></rdf:RDF></metadata><mask id="avatarsRadiusMask"><rect width="400" height="400" rx="0" ry="0" x="0" y="0" fill="#fff"/></mask><g mask="url(#avatarsRadiusMask)"><rect fill="rgba(158, 86, 34, 1)" width="400" height="400" x="0" y="0"/><g transform="translate(-279 -322)"><path d="M556 424.07c13.55-.19 27.11 3.92 38.21 11.72 12.22 8.47 21.42 21.42 25.55 35.69 2.03 8.44 3.26 17.76 1.73 26.36-.34 2.67-3.16 3.58-5.48 3.72-22.92 1.12-45.41 3.72-68.02 6.37-13.15.92-26.15 2.81-39.22 4.54-4.57.55-8.58 1.7-13.07-.02-4.71-13.26-5.45-27.76-1.52-41.31 4.07-14.31 13.26-27 25.49-35.44 10.66-7.48 23.33-11.44 36.33-11.63Z" fill="#000"/><path d="M566.19 430.48c15.3 2.42 29.57 11.04 38.69 23.59 7.72 10.54 11.98 23.86 11.49 36.93-.16 1.36.18 3.47-.67 4.57-4.17.71-8.49.77-12.7 1.15-18.38 1.14-36.61 3.35-54.88 5.53 1.29-3.37 2.51-6.57 2.63-10.23.4-9.56-5.03-18.91-13.67-23.11-7.93-4.1-18.77-3.16-25.87 2.3-6.37 4.73-10.35 12.82-9.79 20.79 0 6.01 2.59 11.23 6.37 15.74-2.44.23-4.87.49-7.3.75-4.9-14.14-4.17-29.43 1.85-43.11 6.19-14.28 18.15-25.86 32.69-31.45 9.91-4.07 20.61-4.84 31.16-3.45Z" fill="#fff"/><path d="M415.92 455.07c10.32 6.33 18.32 16.17 22.55 27.5 4.04 10.78 4.5 23.3 1.31 34.35-3.96 1.23-7.72.76-11.78.75-25.4-.28-50.64-.3-76 1.43-5.57-.31-13.01 1.8-17.82-1.36-1.63-6.9-2.98-13.6-2.05-20.72 1.12-12.32 6.31-24.08 14.86-33.04 8.4-8.92 19.86-14.85 31.99-16.6 12.69-1.87 26.06.89 36.94 7.69Z" fill="#000"/><path d="M410.45 458.52c18.96 10.09 29.6 32.88 24.63 53.87-1.89.03-3.78.06-5.67.13 2.5-4.85 3.78-10.11 2.82-15.56-1.25-8.23-7.5-15.16-15.39-17.62-4.61-1.26-9.55-1.12-14.05.47-8.31 3.06-14.47 11.22-14.46 20.19-.29 4.37 1.04 8.24 2.82 12.14-15.41.07-30.77 1.03-46.16 1.93-1.75-.18-5.82.57-6.13-1.89-4.43-18.71 3.54-39.05 19.11-50.22 15.11-11.12 36.05-12.55 52.48-3.44Z" fill="#fff"/></g><g transform="translate(-279 -322)"><g fill="#000"><path d="M545.03 378.5c24.7.94 48.04 8.97 69.45 20.99 2.26 1.32 4.92 2.49 6.79 4.33 1.3 2.39-.38 5.13-3.2 4.19-16.58-6.21-33.56-9.63-51.06-12.02-20.3-2.34-39.92-3.68-60.2-.13-3.2.44-6.87 2.16-10.08 1.59-2.66-1.69-1.2-6.1 1.29-7.37 13.63-9.33 30.79-12.1 47.01-11.58ZM407.99 396.92c3.51.64 6.6 1.92 9.63 3.78-.15 1.2-.26 2.4-.33 3.62-2.7.74-5.46 1.12-8.24 1.34-13.17 1.15-26.45 5.11-38.81 9.69-12.23 4.75-24.78 10.64-35.19 18.71-2.82 2.03-4.13 4.82-8.08 4.47-.5-.9-1-1.79-1.51-2.67.89-1.59 1.68-3.17 2.76-4.64 9.55-13.17 23.64-23.22 38.61-29.35 12.7-5.15 27.61-8.05 41.16-4.95Z"/></g></g><g transform="translate(-279 -322)"><path d="M529.13 644.56c2.47.19 4.68 1.43 3.9 4.25-1.38 2.08-4.46 1.3-6.64 1.51-14.91.63-29.68 3.43-43.79 8.28-4.83 1.7-9.55 3.58-13.94 6.24-2 .93-3.37 2.59-5.67 1.42-2.15-1.55-1.16-3.48.08-5.2 8.48-4.96 17.64-8.35 27.08-10.96 12.63-3.36 25.89-5.66 38.98-5.54Z" fill="#000"/></g><g transform="translate(-279 -322)"/></g></svg>