<svg xmlns:dc="http://purl.org/dc/elements/1.1/" xmlns:cc="http://creativecommons.org/ns#" xmlns:rdf="http://www.w3.org/1999/02/22-rdf-syntax-ns#" xmlns:svg="http://www.w3.org/2000/svg" xmlns="http://www.w3.org/2000/svg" viewBox="0 0 400 400" fill="none"><metadata><rdf:RDF><cc:Work><dc:format>image/svg+xml</dc:format><dc:type rdf:resource="http://purl.org/dc/dcmitype/StillImage"/><dc:title>Adventurer Neutral</dc:title><dc:creator><cc:Agent><dc:title>Lisa Wischofsky</dc:title></cc:Agent></dc:creator><dc:source>https://www.instagram.com/lischis_adventures/</dc:source><cc:license rdf:resource="https://creativecommons.org/licenses/by/4.0/"/></cc:Work><cc:License rdf:about="https://creativecommons.org/licenses/by/4.0/"><cc:permits rdf:resource="https://creativecommons.org/ns#Reproduction"/><cc:permits rdf:resource="https://creativecommons.org/ns#Distribution"/><cc:permits rdf:resource="https://creativecommons.org/ns#DerivativeWorks"/><cc:requires rdf:resource="https://creativecommons.org/ns#Notice"/><cc:requires rdf:resource="https://creativecommons.org/ns#Attribution"/></cc:License></rdf:RDF></metadata><mask id="avatarsRadiusMask"><rect width="400" height="400" rx="0" ry="0" x="0" y="0" fill="#fff"/></mask><g mask="url(#avatarsRadiusMask)"><rect fill="rgba(158, 86, 34, 1)" width="400" height="400" x="0" y="0"/><g transform="translate(-279 -322)"><path d="M540.491 447.73c18.9-2.42 39.64-.58 56.96 7.8 8.55 4.17 16.74 10.3 21.22 18.89 3.9 7.34 3.91 16.76-.16 24.03-4.22 8.05-12.01 14.1-19.93 18.24-13.55 7.02-29.41 9.83-44.57 9.65-12.04.02-23.93-1.81-35.21-6.11-8.97-3.47-17.65-8.68-23.74-16.26-4.84-6.12-7.63-14.13-5.89-21.93 1.84-8.56 7.49-15.36 14.39-20.47 10.65-7.84 23.96-11.98 36.93-13.84Z" fill="#000"/><path d="M546.98 452.71c8.4-.27 17.24-.58 25.5 1.08 10.59 1.7 21.45 5.3 30.3 11.45 5.49 3.95 10.43 9.09 12.35 15.73 2.02 6.81-.27 14.13-4.75 19.45-6.1 7.46-15.56 12.38-24.55 15.43-9.89 3.26-20.41 5.08-30.83 4.84-10.21.27-20.5-1.38-30.23-4.45-9.19-3.05-18.45-7.69-24.78-15.23-4.29-5.04-6.9-12.45-4.86-18.97 1.51-6.55 6.69-12.06 11.94-15.96 11.4-8.26 26.07-12.06 39.91-13.37Z" fill="#fff"/><path d="M373.48 460.76c16.32-2.29 34.23-.91 49.1 6.64 7.74 3.99 15.42 10.43 17.96 19.07 2.33 7.1-.17 14.74-4.65 20.42-6.28 7.76-15.27 12.43-24.64 15.41-14.57 4.5-30.41 5.01-45.29 1.76-9.88-2.25-20.02-6.47-27.16-13.89-4.71-4.75-7.92-11.31-7.35-18.12.54-7.22 4.98-13.65 10.43-18.18 8.81-7.42 20.37-11.3 31.6-13.11Z" fill="#000"/><path d="M371.5 466.92c15.62-3 32.92-1.77 47.43 5.05 6.36 3.02 13.43 8.26 15.74 15.2 2.08 5.63.36 11.7-3.32 16.23-4.64 5.76-11.76 9.79-18.6 12.35-12.35 4.41-26.02 5.91-38.99 3.9-9.29-1.29-18.98-4.28-26.67-9.78-5.23-3.9-9.63-9.03-9.91-15.85-.19-6.85 4.17-12.52 9.29-16.58 7.13-5.51 16.25-8.79 25.03-10.52Z" fill="#fff"/><path d="M592.23 469.2c2.12-1.59 4.65-.32 5.95 1.66 2.39 4.01 2.38 9.6 2.79 14.14.21 4.39.49 9.64-1.22 13.75-1.98 4.07-7.41 1.34-8.7-1.8-2.28-6.35-2.19-13.75-1.68-20.4.42-2.36.64-5.94 2.86-7.35ZM416.851 476.07c2.18.53 2.81 3.77 3.31 5.63.82 5.03 1.38 10.25 1.06 15.34-.33 2.54-.69 5.69-3.12 7.13-2.07 1.29-4.27-.03-5.35-1.93-2.07-3.84-2.16-8.98-2.29-13.24.06-4.36-.11-8.73 2.24-12.56 1.44-.39 2.65-.96 4.15-.37Z" fill="#000"/></g><g transform="translate(-279 -322)"><path d="M582.3 370.69c14.06 7.04 27.75 17.35 36.57 30.53 2.05 2.95-1.4 6.24-4.23 4.15-10.56-6.54-22.24-11.16-34.46-13.42-35.66-6.86-74.47 5.14-98.23 33.03-1.67 2.05-4.03 3.59-6.28 1.25-1.68-2.6-2.27-6.05-3.3-8.95-1.92 4.71-3.86 9.5-6.21 14.02-1.55 3.23-6 1.12-7.03-1.42-3.06-6.88-6.21-13.74-9.02-20.73.01 5.63.01 11.25.04 16.88-.19 2.06.27 4.35-2.11 5.22-2.06.23-4.36-1.03-5.3-2.91-3.26-5.88-6.24-11.93-9.49-17.82.96 5.51 2.6 10.99 3.1 16.55.12 1.94-2.28 3.44-4.02 2.36-18.54-7.4-38.31-11.49-58.33-10.09-12.5.92-26.14 4.63-36 12.68-3.09 2.34-5.2 5.51-7.97 8.15-1.65.72-3.27-.24-4.88-.65.08-1.91.11-3.75.73-5.58 6.86-20.67 20.43-39.8 39.98-50.1 13.56-7.32 30.17-9.03 44.62-3.35 11.89 4.55 20.95 13.32 27.67 23.95 2.31-2.84 4.25-6.03 6.75-8.71 1.62-1.56 4.62-1.55 5.63.72 2.52 5.15 4.68 10.51 6.98 15.78 1.49-7.42 3.06-14.81 4.43-22.24.33-1.5.6-3.23 1.58-4.45 1.65-1.25 2.9-.28 4.65.1.27.86.53 1.71.8 2.56 2.08-4.75 4.75-9.11 8.44-12.78 9.1-9.43 21.82-14.25 34.5-16.48 23.85-3.69 48.86 1.12 70.39 11.75Z" fill="#000"/></g><g transform="translate(-279 -322)"><path d="M484.8 621.32c16.47 4.71 28.68 20.38 30.53 37.23-2.5-6.68-5.83-12.9-10.89-18-7.03-7.19-17.26-12.19-27.46-11.67-8.01.26-15.78 4.06-20.78 10.34-5.49 6.8-7.7 16.06-6.72 24.66-.69-4.65-1.85-9.1-1.76-13.88.06-8.73 3.26-17.51 9.96-23.32 7.32-6.42 17.9-8.12 27.12-5.36Z" fill="#D31E1E"/><path d="M476.979 628.88c10.2-.52 20.43 4.48 27.46 11.67 5.06 5.1 8.39 11.32 10.89 18 .52 3.48 2.26 6.4-1.37 8.77-8.33.15-16.63.8-24.96 1-12.29.95-24.72.47-36.92 1.94-1.96-1.87-2.34-3.75-2.6-6.38-.98-8.6 1.23-17.86 6.72-24.66 5-6.28 12.77-10.08 20.78-10.34Z" fill="#000"/><path d="M484.479 635.49c12.63 3.09 22.12 13.94 25.51 26.24-18.28.41-36.54 1.67-54.78 2.21-.69-8.6 1.23-17 7.57-23.16 5.82-5.68 13.94-7.02 21.7-5.29Z" fill="#fff"/><path d="M513.96 667.32c-9.3 7.26-23.55 8.73-34.96 9.09-8.63-.08-19.86-.57-26.92-6.15 12.2-1.47 24.63-.99 36.92-1.94 8.33-.2 16.63-.85 24.96-1Z" fill="#D31E1E"/></g><g transform="translate(-279 -322)"/></g></svg>