<svg xmlns:dc="http://purl.org/dc/elements/1.1/" xmlns:cc="http://creativecommons.org/ns#" xmlns:rdf="http://www.w3.org/1999/02/22-rdf-syntax-ns#" xmlns:svg="http://www.w3.org/2000/svg" xmlns="http://www.w3.org/2000/svg" viewBox="0 0 400 400" fill="none"><metadata><rdf:RDF><cc:Work><dc:format>image/svg+xml</dc:format><dc:type rdf:resource="http://purl.org/dc/dcmitype/StillImage"/><dc:title>Adventurer Neutral</dc:title><dc:creator><cc:Agent><dc:title>Lisa Wischofsky</dc:title></cc:Agent></dc:creator><dc:source>https://www.instagram.com/lischis_adventures/</dc:source><cc:license rdf:resource="https://creativecommons.org/licenses/by/4.0/"/></cc:Work><cc:License rdf:about="https://creativecommons.org/licenses/by/4.0/"><cc:permits rdf:resource="https://creativecommons.org/ns#Reproduction"/><cc:permits rdf:resource="https://creativecommons.org/ns#Distribution"/><cc:permits rdf:resource="https://creativecommons.org/ns#DerivativeWorks"/><cc:requires rdf:resource="https://creativecommons.org/ns#Notice"/><cc:requires rdf:resource="https://creativecommons.org/ns#Attribution"/></cc:License></rdf:RDF></metadata><mask id="avatarsRadiusMask"><rect width="400" height="400" rx="0" ry="0" x="0" y="0" fill="#fff"/></mask><g mask="url(#avatarsRadiusMask)"><rect fill="rgba(242, 211, 177, 1)" width="400" height="400" x="0" y="0"/><g transform="translate(-279 -322)"><path d="M561.861 423.28c1.79.47 1.92 1.91 1.98 3.5.02 6.73-.89 13.42-.75 20.17 8.34.57 16.09 2.01 24.09 4.41 3.09-7.1 5.83-14.35 8.73-21.52.94-1.82 1.46-4.16 4.03-3.81 2.35.23 2.58 3 1.77 4.75-2.95 7.55-6.03 15.07-9.09 22.57 6.75 2.72 12.58 6.27 18.22 10.84 4.88-4.58 9.61-9.35 14.61-13.8 1.61-1.56 3.31-1.05 5.34-1.14-.17 1.98.27 3.67-1.36 5.17-4.75 4.73-9.71 9.27-14.6 13.87 3.57 5.14 6.56 10.24 6.7 16.71.65 9.87-4.85 18.25-12.06 24.44-11.14 9.42-26.17 14.24-40.45 16.09-16.6 1.82-33.82.84-49.57-5.05-9.18-3.45-18.18-8.76-24.39-16.49-5.05-6.42-7.79-14.69-5.7-22.8 2.47-9.89 9.93-17.25 18.37-22.44 14.79-8.93 32.37-12.08 49.46-12.05.24-6.57.54-13.17 1.11-19.72.06-1.98 1.23-4.28 3.56-3.7ZM371.979 441.39c1.93-.19 2.61 2.2 3.14 3.63 1.19 4.97 1.31 10.2 2.17 15.24 8.52-.82 17.28-.66 25.73.76 10.86 2.02 22.05 6.02 30.13 13.83 4.96 4.66 8.49 11.22 8.27 18.15-.46 7.42-4.43 13.69-9.92 18.48-8.9 7.86-21.44 11.98-33.01 13.71-15.71 2.23-32.97.68-47.39-6.25-8.49-4.18-17-11.26-19.21-20.87-1.28-5.19-.03-9.95 1.98-14.74-3.86-3.53-7.69-7.1-11.45-10.73-.82-1.01-2.4-2.18-2-3.61.02-2.54 3.45-3.08 4.99-1.37 4 3.5 7.71 7.34 11.68 10.88 3.38-3.65 6.97-6.57 11.16-9.24-2.74-6.13-5.52-12.24-8.25-18.36-1.11-2.21-.85-4.39-.69-6.76 1.24.21 2.62.25 3.78.76 1.18 1.19 1.85 2.96 2.57 4.46 2.5 5.77 5.18 11.45 7.58 17.25 5.99-2.57 11.89-4.32 18.29-5.56-.39-5.41-1.7-10.7-2.04-16.11.01-1.53.39-4.08 2.49-3.55Z" fill="#000"/><path d="M539.5 453.67c14.63-2.22 30-1.53 44.23 2.67 9.51 2.94 19.21 7.45 25.93 15.02 4.3 4.85 7.04 11.05 5.99 17.64-1.05 7.24-5.76 12.91-11.35 17.3-8.81 6.84-20.25 10.76-31.11 12.82-15.73 2.81-32.35 2.12-47.64-2.63-9.43-3.02-19.09-7.77-25.56-15.48-4.32-5.09-6.88-12.41-4.86-19 1.56-6.56 6.67-12 11.93-15.92 9.35-6.79 21.12-10.62 32.44-12.42ZM371.53 466.92c15.61-3 32.89-1.76 47.4 5.05 6.37 3.03 13.4 8.25 15.73 15.18 2.07 5.65.38 11.7-3.31 16.24-4.63 5.75-11.74 9.78-18.58 12.34-12.6 4.53-26.55 5.97-39.78 3.81-9.02-1.36-18.44-4.32-25.91-9.68-5.22-3.87-9.62-9.04-9.9-15.83-.19-6.6 3.87-12.11 8.74-16.14 7.19-5.81 16.63-9.2 25.61-10.97Z" fill="#fff"/><path d="M592.24 469.18c2.15-1.56 4.62-.31 5.94 1.67 1.83 3.14 2.15 6.61 2.49 10.16.43 5.18.88 10.72-.25 15.84-.28 1.37-.95 2.62-2.03 3.53-2.92 1.46-6.85-1.24-7.61-4.16-1.98-6.22-1.92-13.23-1.41-19.69.41-2.37.65-5.91 2.87-7.35ZM413.31 476.33c2.36-1.35 5.2-.18 5.96 2.42 1.79 5.09 1.92 10.91 2.05 16.26-.15 3.13-.37 8.05-3.81 9.46-2.59.94-4.59-1.38-5.4-3.58-1.88-5.25-1.76-11.39-1.51-16.9.25-2.35.45-6.27 2.71-7.66Z" fill="#000"/></g><g transform="translate(-279 -322)"><g fill="#000"><path d="M613.54 401.51c1.59 1.01 1.08 2.86 1.24 4.48-.06 11.34-.05 22.7-.12 34.04.32 2.75-2.42 4.22-4.62 5-39.99 13.74-80.12 27.25-120.05 41.12-2.53.2-2.84-1.75-3.51-3.66-1.63-6-3.3-11.98-5.01-17.95.97 5.75.98 11.66 1.36 17.47-.02 1.44.45 3.94-.99 4.85-1.95 1.4-4.07.13-4.6-2.03-3.64-12.73-7.02-25.58-10.66-38.32-.39-1.83-.65-3.91 1.36-4.88 2.11-.49 3.41.47 4 2.44 1.27 4.55 2.55 9.11 3.68 13.7-.73-5.24-.94-10.49-1.18-15.77-.01-1.27-.14-3.73 1.66-3.79 1.47-.26 2.98-.38 4.43-.72 41.23-11.74 82.37-23.44 123.6-35.22 3.27-.87 6.02-2.08 9.41-.76ZM324 433.87c13.64 1.39 27.36 1.44 41 2.58 21.04 1.05 42.11 2.67 63.14 3.42 7.79.78 15.61 1.12 23.44 1.68 2.77 2.19 1.08 8.08 1.91 11.33.56-2.97.18-6.91 1.92-9.46 2.15-1.8 5.08-.17 4.76 2.56-2.36 14.03-4.77 28.14-7.02 42.18-.8 2.93-4.48 2.56-5.29-.15-.27-4.92-.21-9.89-.28-14.83-1.03 4.29-1.47 8.69-2.47 12.98-.43 1.64-1.17 2.84-3.1 2.4-39.48-6.89-79.4-14.23-118.87-21.29-1.88-.2-2.83-1.46-3.09-3.26-1.45-7.98-2.5-16.04-4.12-23.99-.23-1.72-.74-3.14.56-4.58 2.12-2.29 4.72-1.68 7.51-1.57Z"/></g></g><g transform="translate(-279 -322)"><path d="M519 572.72c12.29.18 24.45 2.02 35.94 6.5 17.84 6.73 33.25 19.14 43.87 34.94 1.14 1.53.8 3.58.95 5.41-7.22.57-14.43-.04-21.67.76.12 7.4 0 14.39-3.75 21.02-2.19 3.77-5.69 7.2-10.34 7.12-4.49-.03-8.23-3.43-10.38-7.1-3.71-6.4-4.2-13.83-4.46-21.04-25.38.12-50.77.29-76.16.43-7.35-.26-14.65.67-22 .42-7.53-.2-14.18.78-21.52-.74.07-1.62-.51-4.04.59-5.37 22.4-25.3 54.86-41.81 88.93-42.35Z" fill="#000"/><path d="M508.979 579.48c6.98-.54 14.06-.45 21.04-.02 17.95 1.77 34.93 9.2 48.66 20.86-11.23.41-22.44.62-33.68.58-30.98 1.14-61.99.83-92.97 1.81 6.13-4.21 12.16-8.38 18.84-11.69 11.91-6.06 24.84-10.02 38.11-11.54Z" fill="#8F2E45"/><path d="M569.001 606.4c5.17.01 10.56-.64 15.68.04 2.37 2.05 4.27 4.71 6.31 7.09-5.88.61-11.88.05-17.7.77-1.23 7.11-.33 16.61-3.6 23.41-1.15 2.69-3.33 4.04-5.67 5.56-2.32-1.57-4.53-2.89-5.74-5.56-3.42-6.79-3.33-15.68-4.08-23.16-5.72-.52-11.41-.06-17.2-.19-32.79.26-65.57.28-98.36.54 2.11-2.04 4.57-5.59 7.5-6.24 17.96-.71 35.91-.24 53.86-1.1 11-.5 22-.08 33-.59 12-.24 24-.08 36-.57Z" fill="#6FA942"/></g><g transform="translate(-279 -322)"/></g></svg>