<svg xmlns:dc="http://purl.org/dc/elements/1.1/" xmlns:cc="http://creativecommons.org/ns#" xmlns:rdf="http://www.w3.org/1999/02/22-rdf-syntax-ns#" xmlns:svg="http://www.w3.org/2000/svg" xmlns="http://www.w3.org/2000/svg" viewBox="0 0 400 400" fill="none"><metadata><rdf:RDF><cc:Work><dc:format>image/svg+xml</dc:format><dc:type rdf:resource="http://purl.org/dc/dcmitype/StillImage"/><dc:title>Adventurer Neutral</dc:title><dc:creator><cc:Agent><dc:title>Lisa Wischofsky</dc:title></cc:Agent></dc:creator><dc:source>https://www.instagram.com/lischis_adventures/</dc:source><cc:license rdf:resource="https://creativecommons.org/licenses/by/4.0/"/></cc:Work><cc:License rdf:about="https://creativecommons.org/licenses/by/4.0/"><cc:permits rdf:resource="https://creativecommons.org/ns#Reproduction"/><cc:permits rdf:resource="https://creativecommons.org/ns#Distribution"/><cc:permits rdf:resource="https://creativecommons.org/ns#DerivativeWorks"/><cc:requires rdf:resource="https://creativecommons.org/ns#Notice"/><cc:requires rdf:resource="https://creativecommons.org/ns#Attribution"/></cc:License></rdf:RDF></metadata><mask id="avatarsRadiusMask"><rect width="400" height="400" rx="0" ry="0" x="0" y="0" fill="#fff"/></mask><g mask="url(#avatarsRadiusMask)"><rect fill="rgba(158, 86, 34, 1)" width="400" height="400" x="0" y="0"/><g transform="translate(-279 -322)"><path d="M617.23 468.82c1.16 1.34 2.37 2.36 2.84 4.14 4.46 17.23 1.58 36.09-7.98 51.11-8.01 12.77-20.52 22.56-34.83 27.28-11.68 3.74-24.33 4.31-36.24 1.27-17.06-4.16-32.11-15.59-40.77-30.86-7.18-12.23-9.85-26.73-8.06-40.75.53-3.41 1.75-7.26 5.57-8.09 8.61-1.53 17.56-1.34 26.27-2.27 24.31-1.49 48.65-2.37 73.01-2.08 6.75-.37 13.45.4 20.19.25Z" fill="#000"/><path d="M607.09 474.28c2.48.12 4.97.24 7.45.37 3.8 14.15 1.78 29.85-5.17 42.73-6.79 12.81-18.41 23-32.1 27.84-14.68 5.57-31.38 4.73-45.56-1.92-13.38-6.21-24.24-17.42-29.82-31.09-4.19-10.23-5.98-22.11-3.62-32.99 1.86-.72 3.69-1.32 5.7-1.4 16.9-1.37 33.84-2.38 50.78-3.11-.41 5.34-.18 10.53 2.09 15.47 3.42 7.65 10.45 13.28 18.62 15.04 4.89.87 9.94.6 14.61-1.13 8.19-2.81 14.36-9.94 16.48-18.26.92-3.9.66-7.59.54-11.55Z" fill="#fff"/><path d="M432.03 480.67c2.01-.23 3.79.3 5.74.68 4.2 9.05 4.82 19.93 3.38 29.69-2.48 14.77-11.15 28.19-23.63 36.48-10.93 7.31-24.46 10.57-37.51 8.79-15.32-1.77-29.51-10.46-38.25-23.14-6.82-9.71-10.02-21.43-10.01-33.24 6.53-3.27 13.18-3.72 20.49-5.47 20.5-4.17 41.07-8.1 61.75-11.22 6-.99 11.97-2.04 18.04-2.57Z" fill="#000"/><path d="M433.71 486.06c1.44 5.27 2.74 10.43 2.6 15.94-.2 9.49-3.01 19.08-8.31 26.99-9.89 15.07-28.07 23.78-46.01 21.88-12.38-1.34-24.01-7.28-32.17-16.71-7.5-8.47-11.57-19.33-12.24-30.58 14.45-3.54 29.14-6.22 43.76-9.01 1.32 6.49 4.55 12.28 10.11 16.03 9.04 6.32 21.92 5.38 29.9-2.26 6.12-5.72 8.04-13.57 7.2-21.73 1.72-.19 3.44-.38 5.16-.55Z" fill="#fff"/></g><g transform="translate(-279 -322)"><g fill="#000"><path d="M452.03 395.85c.66 4.64-1.51 9.35-4.21 13-3.6 4.46-7.81 8.36-12.85 11.13-7.66 4.35-15.96 7.71-24.19 10.81-23.79 8.79-48.56 15.1-73.52 19.48-3.35.54-6.97 1.5-10.36 1.11-1.92-.92-2-2.82-1.11-4.52 2.34-1.8 5.49-2.72 8.19-3.89 35.94-14.72 71.88-29.45 107.8-44.2 3.36-1.25 6.59-3.38 10.25-2.92ZM478.97 396c49.32 7.61 98.68 15.15 148.01 22.75 2.58.42 5.33.58 7.81 1.41 2.44 1.14 1.7 5.04-.96 5.26-9.59.95-19.18 1.82-28.83 1.95-15.39.1-30.64.32-45.98-1.18-20.91-1.64-42.24-4.59-62.25-11.06-6.97-2.41-14.88-5.46-20.27-10.64-1.79-1.9-4.09-4.28-3.17-7.13 1.22-2.13 3.6-1.59 5.64-1.36Z"/></g></g><g transform="translate(-279 -322)"><path d="M495.999 576.26c3.08-.09 6.12-.07 9.17.33.43.8.85 1.6 1.28 2.39-.42.82-.84 1.64-1.25 2.47-7.68.86-15.48.06-23.2.66-28.03.19-55.98.31-84.04.55-1.67.13-4.56-.53-4.37-2.68-.53-1.67 1.85-3.31 3.35-3.17 33.02-.15 66.04-.35 99.06-.55Z" fill="#000"/></g><g transform="translate(-279 -322)"/></g></svg>