<svg xmlns:dc="http://purl.org/dc/elements/1.1/" xmlns:cc="http://creativecommons.org/ns#" xmlns:rdf="http://www.w3.org/1999/02/22-rdf-syntax-ns#" xmlns:svg="http://www.w3.org/2000/svg" xmlns="http://www.w3.org/2000/svg" viewBox="0 0 400 400" fill="none"><metadata><rdf:RDF><cc:Work><dc:format>image/svg+xml</dc:format><dc:type rdf:resource="http://purl.org/dc/dcmitype/StillImage"/><dc:title>Adventurer Neutral</dc:title><dc:creator><cc:Agent><dc:title>Lisa Wischofsky</dc:title></cc:Agent></dc:creator><dc:source>https://www.instagram.com/lischis_adventures/</dc:source><cc:license rdf:resource="https://creativecommons.org/licenses/by/4.0/"/></cc:Work><cc:License rdf:about="https://creativecommons.org/licenses/by/4.0/"><cc:permits rdf:resource="https://creativecommons.org/ns#Reproduction"/><cc:permits rdf:resource="https://creativecommons.org/ns#Distribution"/><cc:permits rdf:resource="https://creativecommons.org/ns#DerivativeWorks"/><cc:requires rdf:resource="https://creativecommons.org/ns#Notice"/><cc:requires rdf:resource="https://creativecommons.org/ns#Attribution"/></cc:License></rdf:RDF></metadata><mask id="avatarsRadiusMask"><rect width="400" height="400" rx="0" ry="0" x="0" y="0" fill="#fff"/></mask><g mask="url(#avatarsRadiusMask)"><rect fill="rgba(158, 86, 34, 1)" width="400" height="400" x="0" y="0"/><g transform="translate(-279 -322)"><path d="M550.27 424.38c11.73-1.17 23.8.88 34.46 5.92 11.27 5.3 20.98 13.91 27.52 24.52 8.52 13.52 11.81 30.47 8.78 46.18-2.62 15.25-11.05 29.23-23.03 38.97-16.48 13.6-39.38 18.04-59.81 11.9-16.14-4.8-30.17-16.01-38.31-30.76-7.42-12.96-9.7-28.23-7.33-42.9 2.28-13.33 8.74-25.78 18.4-35.26 10.57-10.48 24.49-17.09 39.32-18.57Z" fill="#000"/><path d="M549.23 430.27c9.32-.98 18.71-.35 27.55 2.92 14.2 5.05 26.25 15.47 33.08 28.93 5.89 11.3 7.76 24.3 5.81 36.86-2.19 12.58-8.23 24.38-17.49 33.21-9.48 9.35-22.52 15.1-35.71 16.47-15.36 1.46-31.09-3.31-43.06-13.03-9.46-7.5-15.92-17.77-19.8-29.11-5.26-18.02-1.64-38.17 9.74-53.13 9.47-12.69 24.19-21.15 39.88-23.12Z" fill="#fff"/><path d="M521.23 467.28c7.31-1.89 15.52.27 20.87 5.62 6.09 5.72 8.42 15.06 5.6 22.95-3.49 11.19-16.53 17.96-27.64 14.08-11.45-3.35-18.17-16.09-14.6-27.48 2.25-7.54 8.22-13.11 15.77-15.17ZM332.97 478.46c14.43.75 28.78 1.53 43.05 3.91 21.13 3.42 42.86 8.97 62.12 18.47 2.85 1.6 2.45 3.29 1.6 6.06-2.42.05-4.41-.24-6.71-1.01-11.15-3.38-22.56-5.25-34.03-7.16-10.45-1.44-20.56-3.19-31-3.72-10.97-1.1-21.89-.72-32.98-.66-1.97-.1-5.02.62-6.6-.75-.76-2.14.78-4.69 1.32-6.78-.94-1.57-3.08-3.45-2.4-5.43.87-2.4 3.35-2.93 5.63-2.93Z" fill="#000"/></g><g transform="translate(-279 -322)"><g fill="#000"><path d="M523.24 384.36c6.17-.42 13.09-.61 18.45 2.95 3.68 2.44 5.4 6.35 4.48 10.74-1.55 6.16-6.62 10.92-11.61 14.5-8.97 6.29-19.71 10.24-30.57 11.53-5.61.53-12.5.43-17.47-2.55-3.63-2.13-5.9-6.12-5.2-10.36 1.02-5.75 5.49-10.49 9.94-13.96 9.19-7.03 20.55-11.34 31.98-12.85ZM392.22 401.23c9.11-.36 18.31.51 26.31 5.24 3.85 2.26 7.34 5.89 7.89 10.49.34 4.21-1.96 7.8-5.19 10.27-4.52 3.55-9.87 5-15.43 5.99-9.95 1.02-20.55.32-29.48-4.58-3.87-2.29-7.88-5.85-8.47-10.57-.73-4.27 2.02-8.47 5.39-10.84 5.4-3.87 12.43-5.69 18.98-6Z"/></g></g><g transform="translate(-279 -322)"><path d="M550 573.51c1.46.01 3.54-.33 4.63.86 1.79 1.55.73 4.5-1.6 4.72-5.31.8-10.73.62-16.06 1.31-4.86.62-9.72 1.26-14.57 1.91 3.05 6.5 5.04 13.42 6.07 20.52 1.1 9.46.49 18.83-4.44 27.2-4.08 6.95-11.07 11.69-18.97 13.18-9.3 1.51-18.57-.3-27.06-4.23-13.14-6.16-23.89-15.8-32.58-27.32-6.65 4.89-13 10.1-18.5 16.27-1.57 1.58-3.5 3.91-5.73 1.87-1.86-1.74-.28-4.03 1.06-5.54 9.67-10.78 21.93-19.53 34.63-26.41 28.47-15.25 61.04-22.5 93.12-24.34Z" fill="#000"/><path d="M516.86 583.39c1.15 3.94 2.8 7.7 3.96 11.64 2.13 6.95 2.55 14.24 1.79 21.44-1.11 7.19-4.63 14.31-11.1 18.07-7.43 4.49-16.62 4-24.65 1.5-15.04-4.85-26.95-15.23-36.46-27.58 9.26-5.81 19.07-10.67 29.29-14.53 1.72 2.36 3.27 5.09 5.42 7.07 1.42 1.48 4.45.11 4.09-2.01-.39-2.38-2.78-4.36-3.81-6.56-.12-.47.13-.76.75-.88 9.98-3.51 20.34-6.12 30.72-8.16Z" fill="#EA869E"/></g><g transform="translate(-279 -322)"/></g></svg>