<svg xmlns:dc="http://purl.org/dc/elements/1.1/" xmlns:cc="http://creativecommons.org/ns#" xmlns:rdf="http://www.w3.org/1999/02/22-rdf-syntax-ns#" xmlns:svg="http://www.w3.org/2000/svg" xmlns="http://www.w3.org/2000/svg" viewBox="0 0 400 400" fill="none"><metadata><rdf:RDF><cc:Work><dc:format>image/svg+xml</dc:format><dc:type rdf:resource="http://purl.org/dc/dcmitype/StillImage"/><dc:title>Adventurer Neutral</dc:title><dc:creator><cc:Agent><dc:title>Lisa Wischofsky</dc:title></cc:Agent></dc:creator><dc:source>https://www.instagram.com/lischis_adventures/</dc:source><cc:license rdf:resource="https://creativecommons.org/licenses/by/4.0/"/></cc:Work><cc:License rdf:about="https://creativecommons.org/licenses/by/4.0/"><cc:permits rdf:resource="https://creativecommons.org/ns#Reproduction"/><cc:permits rdf:resource="https://creativecommons.org/ns#Distribution"/><cc:permits rdf:resource="https://creativecommons.org/ns#DerivativeWorks"/><cc:requires rdf:resource="https://creativecommons.org/ns#Notice"/><cc:requires rdf:resource="https://creativecommons.org/ns#Attribution"/></cc:License></rdf:RDF></metadata><mask id="avatarsRadiusMask"><rect width="400" height="400" rx="0" ry="0" x="0" y="0" fill="#fff"/></mask><g mask="url(#avatarsRadiusMask)"><rect fill="rgba(242, 211, 177, 1)" width="400" height="400" x="0" y="0"/><g transform="translate(-279 -322)"><path d="M551.26 424.28c22.14-1.95 44.44 7.9 57.71 25.75 8.64 11.47 13.27 25.62 13.2 39.97-.27 12.75-4.02 25.34-11.26 35.89-8.84 13.09-22.73 23-38.11 26.7-16.24 4.16-34.1 1.72-48.57-6.76a65.054 65.054 0 0 1-24.72-25.38c-7.13-12.81-9.27-27.78-6.97-42.19 2.31-13.58 8.97-26.26 18.91-35.81a65.285 65.285 0 0 1 39.81-18.17Z" fill="#000"/><path d="M549.27 430.26c15.88-1.96 31.69 2.29 44.29 12.15 14.44 11.15 23.28 29.32 22.8 47.59.05 22.95-14.44 44.84-35.55 53.82-10.61 4.63-22.39 6.3-33.81 4.22-16.4-2.64-31.49-12.63-40.35-26.68-5.6-8.77-8.74-18.94-9.37-29.31-.6-14.46 4.23-29.16 13.41-40.36 9.45-11.75 23.64-19.57 38.58-21.43Z" fill="#fff"/><path d="M381.25 447.09c11.52-1.18 23.47 1.35 33.46 7.24 12.25 7.09 21.47 19.09 25.21 32.74 3.15 11.43 2.54 23.97-1.86 34.99-4.67 11.91-13.64 22.02-24.9 28.09-10.04 5.45-21.85 7.71-33.18 6.15-15.78-1.82-30.34-11-39-24.28-5.54-8.32-8.46-18.03-9.11-27.97-.31-12.55 3.41-25.11 10.99-35.17 9.06-12.23 23.25-20.25 38.39-21.79Z" fill="#000"/><path d="M378.26 453.29c11.25-2.04 22.9-.02 32.85 5.6 17.73 9.81 28.17 31.02 24.42 51.03-1.74 10.34-6.78 19.99-14.36 27.25-8.1 7.95-18.9 12.75-30.17 13.77-20.15 1.85-40.17-9.84-48.64-28.18-7.75-16.18-5.75-36.01 5.04-50.33 7.38-10.04 18.61-16.93 30.86-19.14Z" fill="#fff"/><path d="M526.47 467.49c12.02-2.86 24.89 4.24 29.36 15.65 2.21 6 2.32 12.7-.08 18.66-3.15 8.33-10.9 14.62-19.7 15.97-8.11 1.41-16.74-1.45-22.47-7.35-6.99-7.09-9.21-18.1-5.46-27.34 3.06-7.95 10.06-13.77 18.35-15.59ZM398.26 478.35c12.27-2.56 24.75 5.81 27.12 18.08.66 5.63.55 11.35-2.68 16.22-4.79 8.01-14.36 12.76-23.63 11.14-10.66-1.71-18.99-10.97-19.33-21.79-.63-11.26 7.45-21.53 18.52-23.65Z" fill="#000"/></g><g transform="translate(-279 -322)"><g fill="#000"><path d="M397.06 373.14c6.81.19 14.18 2.86 17.93 8.88 1.05 1.45.63 3.68.72 5.4-6.29.15-12.49.33-18.64 1.83-15.06 3.48-29.35 10.86-41.64 20.15-8.37 6.38-16.34 14.1-21.95 23.07-1.43 2.22-2.41 5.03-4.29 6.89-1.24.26-2.57.28-3.83.35-.05-1.77-.23-3.46.21-5.19 5.72-20.86 19.83-39.34 38.12-50.81 9.83-5.84 21.73-11.05 33.37-10.57ZM578.52 411.66c10.41 1.67 21.2 3.85 30.01 9.97l-.21 4.78c-4.07 1.59-7.29-.15-11.31-.78-6.82-1.2-13.91-1.25-20.83-1.11-29.25 1.32-58.23 9.89-83.97 23.74-1.45.63-2.92 1.06-4.42 1.54-2.58-5.36-3.61-10.91-.13-16.17 5.13-7.67 15.2-12.39 23.63-15.44 21.34-7.36 44.88-9 67.23-6.53Z"/></g></g><g transform="translate(-279 -322)"><path d="M529.13 644.56c2.47.19 4.68 1.43 3.9 4.25-1.38 2.08-4.46 1.3-6.64 1.51-14.91.63-29.68 3.43-43.79 8.28-4.83 1.7-9.55 3.58-13.94 6.24-2 .93-3.37 2.59-5.67 1.42-2.15-1.55-1.16-3.48.08-5.2 8.48-4.96 17.64-8.35 27.08-10.96 12.63-3.36 25.89-5.66 38.98-5.54Z" fill="#000"/></g><g transform="translate(-279 -322)"/></g></svg>