<svg xmlns:dc="http://purl.org/dc/elements/1.1/" xmlns:cc="http://creativecommons.org/ns#" xmlns:rdf="http://www.w3.org/1999/02/22-rdf-syntax-ns#" xmlns:svg="http://www.w3.org/2000/svg" xmlns="http://www.w3.org/2000/svg" viewBox="0 0 400 400" fill="none"><metadata><rdf:RDF><cc:Work><dc:format>image/svg+xml</dc:format><dc:type rdf:resource="http://purl.org/dc/dcmitype/StillImage"/><dc:title>Adventurer Neutral</dc:title><dc:creator><cc:Agent><dc:title>Lisa Wischofsky</dc:title></cc:Agent></dc:creator><dc:source>https://www.instagram.com/lischis_adventures/</dc:source><cc:license rdf:resource="https://creativecommons.org/licenses/by/4.0/"/></cc:Work><cc:License rdf:about="https://creativecommons.org/licenses/by/4.0/"><cc:permits rdf:resource="https://creativecommons.org/ns#Reproduction"/><cc:permits rdf:resource="https://creativecommons.org/ns#Distribution"/><cc:permits rdf:resource="https://creativecommons.org/ns#DerivativeWorks"/><cc:requires rdf:resource="https://creativecommons.org/ns#Notice"/><cc:requires rdf:resource="https://creativecommons.org/ns#Attribution"/></cc:License></rdf:RDF></metadata><mask id="avatarsRadiusMask"><rect width="400" height="400" rx="0" ry="0" x="0" y="0" fill="#fff"/></mask><g mask="url(#avatarsRadiusMask)"><rect fill="rgba(118, 57, 0, 1)" width="400" height="400" x="0" y="0"/><g transform="translate(-279 -322)"><path d="M589.95 433.05c11.85 6.92 21.04 17.51 26.71 29.97 5.93-3.13 11.67-6.68 17.68-9.63 1.79-.95 4.4.55 3.98 2.62.21 1.48-2.02 2.51-3.06 3.23-5.45 3-10.88 6.04-16.34 9.03 1.7 6.87 3.23 13.6 3.24 20.73-.06 12.85-3.69 25.61-10.87 36.3-7.59 11.54-18.88 20.44-31.79 25.28-12.26 4.43-25.85 5.28-38.5 2.03-16.54-4.02-31.31-14.98-40.01-29.6-6.06-9.89-9.33-21.42-9.3-33.01-.36-15.55 5.31-31.11 15.41-42.91 9.58-11.27 23.24-19.42 37.87-21.9 15.25-2.97 31.61-.02 44.98 7.86Z" fill="#000"/><path d="M549.2 430.27c15.9-1.97 31.74 2.27 44.36 12.14 14.46 11.18 23.27 29.28 22.81 47.59.02 22.44-13.8 43.89-34.2 53.21-10.96 5.08-23.24 7-35.17 4.83-16.66-2.69-31.92-12.91-40.74-27.3-5.36-8.64-8.37-18.58-8.98-28.72-.61-14.7 4.4-29.62 13.88-40.9 9.43-11.43 23.36-18.99 38.04-20.85Z" fill="#fff"/><path d="M390.01 446.91c12.75.68 25.11 5.93 34.43 14.65 10.09 9.4 16.54 22.67 17.29 36.47.83 11.45-1.96 22.93-8.01 32.68-8.01 13.08-21.63 22.43-36.73 25.14-13.17 2.48-27.29-.07-38.71-7.1-12.63-7.66-21.86-20.5-25-34.94-2.36-9.41-1.56-18.93 1.03-28.19-3.77-1.54-7.54-3.03-11.33-4.49-1.89-.79-4.01-1.45-5.35-3.09-.4-2.4.76-3.92 3.21-3.62 5.2 1.25 9.98 4.21 15.17 5.57 1.39-1.65 2.24-3.81 3.31-5.68 10.02-17.81 30.31-28.73 50.69-27.4Z" fill="#000"/><path d="M376.509 453.66c18.62-4.25 38.75 3.44 50 18.81 5.72 7.69 9.02 16.99 9.73 26.52.67 13.61-4.44 27.48-14.06 37.18-7.97 8.25-18.78 13.44-30.18 14.66-19.94 2.3-40.08-8.85-49.01-26.78-7.86-15.29-6.93-34.22 2.37-48.68 6.97-11.03 18.38-18.99 31.15-21.71Z" fill="#fff"/><path d="M578.28 465.43c6.24-.76 12.69.82 17.74 4.57 6.29 4.65 10.27 12.14 10.18 20.01-.35 4.78-1.83 9.65-4.57 13.62-4.1 6.13-11.27 10.06-18.6 10.54-8.21.49-16.42-3.28-21.25-9.97-6.02-7.97-6.24-19.8-.63-28.03 3.84-5.84 10.23-9.78 17.13-10.74ZM408.45 478.49c7.22-.86 14.79 2 19.61 7.47 4.03 4.47 6.02 10.02 5.74 16.04.04 12-10.69 22.79-22.8 22.28-12.1.09-22.88-10.05-22.87-22.26-.71-11.81 8.67-22.32 20.32-23.53Z" fill="#000"/></g><g transform="translate(-279 -322)"><g fill="#000"><path d="M545.03 378.5c24.7.94 48.04 8.97 69.45 20.99 2.26 1.32 4.92 2.49 6.79 4.33 1.3 2.39-.38 5.13-3.2 4.19-16.58-6.21-33.56-9.63-51.06-12.02-20.3-2.34-39.92-3.68-60.2-.13-3.2.44-6.87 2.16-10.08 1.59-2.66-1.69-1.2-6.1 1.29-7.37 13.63-9.33 30.79-12.1 47.01-11.58ZM407.99 396.92c3.51.64 6.6 1.92 9.63 3.78-.15 1.2-.26 2.4-.33 3.62-2.7.74-5.46 1.12-8.24 1.34-13.17 1.15-26.45 5.11-38.81 9.69-12.23 4.75-24.78 10.64-35.19 18.71-2.82 2.03-4.13 4.82-8.08 4.47-.5-.9-1-1.79-1.51-2.67.89-1.59 1.68-3.17 2.76-4.64 9.55-13.17 23.64-23.22 38.61-29.35 12.7-5.15 27.61-8.05 41.16-4.95Z"/></g></g><g transform="translate(-279 -322)"><path d="M473.001 557.77c14.54-.55 30.84 1.36 43.71 8.62-20.68 8.69-43.21 14.72-65.7 15.48-7.24 0-14.34.28-21.54-.61.7-5.83 3.09-9.58 7.73-13.05 9.92-7.31 23.76-9.76 35.8-10.44Z" fill="#D31E1E"/><path d="M525.03 563.67c.41.78.8 1.57 1.14 2.37.47 2.66-1.95 3.31-3.81 4.34-3.98 1.77-8.05 3.4-12.12 4.98-17.66 6.32-35.39 11.11-54.24 11.94-6.5.5-12.94.62-19.44.04-4.9-.57-10.15-.63-14.87-2.03-2.35-.88-2.73-3.93-.4-5.07 2.68-.12 5.48.83 8.18 1.02 7.2.89 14.3.61 21.54.61 22.49-.76 45.02-6.79 65.7-15.48 2.76-1.19 5.22-2.59 8.32-2.72Z" fill="#000"/><path d="M510.241 575.36c-1.96 10.16-10.37 17.27-19.22 21.68-10.52 5.13-22.48 6.64-34 4.71-8.71-1.77-16.51-6.13-20.46-14.41 6.5.58 12.94.46 19.44-.04 18.85-.83 36.58-5.62 54.24-11.94Z" fill="#D31E1E"/></g><g transform="translate(-279 -322)"/></g></svg>