<svg xmlns:dc="http://purl.org/dc/elements/1.1/" xmlns:cc="http://creativecommons.org/ns#" xmlns:rdf="http://www.w3.org/1999/02/22-rdf-syntax-ns#" xmlns:svg="http://www.w3.org/2000/svg" xmlns="http://www.w3.org/2000/svg" viewBox="0 0 400 400" fill="none"><metadata><rdf:RDF><cc:Work><dc:format>image/svg+xml</dc:format><dc:type rdf:resource="http://purl.org/dc/dcmitype/StillImage"/><dc:title>Adventurer Neutral</dc:title><dc:creator><cc:Agent><dc:title>Lisa Wischofsky</dc:title></cc:Agent></dc:creator><dc:source>https://www.instagram.com/lischis_adventures/</dc:source><cc:license rdf:resource="https://creativecommons.org/licenses/by/4.0/"/></cc:Work><cc:License rdf:about="https://creativecommons.org/licenses/by/4.0/"><cc:permits rdf:resource="https://creativecommons.org/ns#Reproduction"/><cc:permits rdf:resource="https://creativecommons.org/ns#Distribution"/><cc:permits rdf:resource="https://creativecommons.org/ns#DerivativeWorks"/><cc:requires rdf:resource="https://creativecommons.org/ns#Notice"/><cc:requires rdf:resource="https://creativecommons.org/ns#Attribution"/></cc:License></rdf:RDF></metadata><mask id="avatarsRadiusMask"><rect width="400" height="400" rx="0" ry="0" x="0" y="0" fill="#fff"/></mask><g mask="url(#avatarsRadiusMask)"><rect fill="rgba(118, 57, 0, 1)" width="400" height="400" x="0" y="0"/><g transform="translate(-279 -322)"><path d="M589.31 432.68c12.94 7.41 23.39 19.43 28.46 33.49 5.72 14.36 5.72 30.62.54 45.13-1.04 2.89-2.88 5.22-6.28 4.77-15.08-.73-29.98.14-45.06.56-10.03 1.09-20.04 2.15-30 3.79-10.45 1.82-20.62 4.13-30.98 6.08-4.32-.12-5.27-4.23-7.16-7.33-12.06-22.95-8.72-52.48 8.27-72.08 9.79-11.52 23.84-19.77 38.83-22.06 14.73-2.65 30.42.22 43.38 7.65Z" fill="#000"/><path d="M558 429.86c14.45-.01 28.8 6.03 39.38 15.78 10.02 9.25 16.53 21.86 18.51 35.34 1.2 10.01.35 20.16-3.45 29.56-1.1-.13-2.19-.25-3.28-.37 1.67-5.12 2.73-10.04 1.39-15.4-1.92-10.81-10.74-19.63-21.59-21.4-5.35-.62-10.64-.41-15.57 1.95-8.02 3.55-13.84 11.08-15.32 19.72-1.09 5.72-.02 11.42 2.43 16.64-11.45 1.04-22.74 2.78-33.99 5.18-6.74 1.22-13.36 3.24-20.16 4.12-7.35-12.03-10.84-27.07-8.29-41.03 2.08-13.36 8.9-25.89 18.96-34.92 11.08-9.99 26.04-15.66 40.98-15.17Z" fill="#fff"/><path d="M392.02 447.07c12.51 1.09 24.52 6.68 33.45 15.49 9.47 9.27 15.55 22.17 16.25 35.44.8 10.74-1.59 21.51-6.91 30.87-1.13 1.88-2.87 4.02-5.01 4.71-3.02.81-6.59-.16-9.6-.83-8.69-2.1-17.43-3.85-26.28-5.18-12.88-.84-26.08-.89-38.96.07-4.8.32-9.78 1.33-14.56.99-2.32-1.08-3.7-4.2-4.57-6.47-3.37-8.83-4.98-18.73-3.32-28.12 2.02-15.04 10.61-28.84 23.08-37.45 10.55-7.28 23.66-10.83 36.43-9.52Z" fill="#000"/><path d="M401.48 454.74c12.79 3.91 23.68 13.17 29.58 25.18 4.64 9.38 6.55 20.52 4.31 30.82-1.3 6.2-3.31 12.86-7.13 18l-4.14-.69c4.13-4.49 6.91-9.85 6.82-16.08.38-10.49-7.04-19.98-17.18-22.44-10.75-2.93-22.53 3.32-26.51 13.64-2.55 5.93-1.92 12.1.33 17.99-7.6.29-15.02-.37-22.59.38-7.31.65-14.63 1.12-21.93 1.8-.66-1.14-1.33-2.25-1.89-3.45-7.25-17.69-2.93-38.73 10.38-52.36 12.64-13.18 32.51-18.39 49.95-12.79Z" fill="#fff"/></g><g transform="translate(-279 -322)"><g fill="#000"><path d="M530.96 352.34c21.47-3.31 42.8 3.14 60.6 15.09 12.06 8.19 22.9 19.68 28.97 33.03 1.1 2.96-.3 3.73-2.51 5.27-3.95-2.26-6.87-5.58-10.47-8.29-12.99-9.78-28.03-16.38-43.78-20.25-14.93-3.51-30.56-5.05-45.8-2.8-4.78.41-9.28 1.92-13.97 2.67-2.41.2-5.1-1.21-4.21-4.04 1.9-4.15 4.23-8.5 7.6-11.65 6.04-5.62 15.64-7.85 23.57-9.03ZM383 428.83c13.38-.82 26.33-.61 39.03 4.23 5.85 2.37 11.52 5.91 13.93 12.05 1.38 4.31.91 8.87-1.73 12.61-4.9-.76-9.4-2.6-14.18-3.82-23.13-6.33-47.19-8.01-71.04-5.96-4.88.33-9.86 2.03-14.72 1.78-1.78-.48-1.17-2.2-.97-3.54.88-2.51 3.58-3.86 5.76-5.09 13.75-7.25 28.55-10.65 43.92-12.26Z"/></g></g><g transform="translate(-279 -322)"><path d="M529.13 644.56c2.47.19 4.68 1.43 3.9 4.25-1.38 2.08-4.46 1.3-6.64 1.51-14.91.63-29.68 3.43-43.79 8.28-4.83 1.7-9.55 3.58-13.94 6.24-2 .93-3.37 2.59-5.67 1.42-2.15-1.55-1.16-3.48.08-5.2 8.48-4.96 17.64-8.35 27.08-10.96 12.63-3.36 25.89-5.66 38.98-5.54Z" fill="#000"/></g><g transform="translate(-279 -322)"/></g></svg>