<svg xmlns:dc="http://purl.org/dc/elements/1.1/" xmlns:cc="http://creativecommons.org/ns#" xmlns:rdf="http://www.w3.org/1999/02/22-rdf-syntax-ns#" xmlns:svg="http://www.w3.org/2000/svg" xmlns="http://www.w3.org/2000/svg" viewBox="0 0 400 400" fill="none"><metadata><rdf:RDF><cc:Work><dc:format>image/svg+xml</dc:format><dc:type rdf:resource="http://purl.org/dc/dcmitype/StillImage"/><dc:title>Adventurer Neutral</dc:title><dc:creator><cc:Agent><dc:title>Lisa Wischofsky</dc:title></cc:Agent></dc:creator><dc:source>https://www.instagram.com/lischis_adventures/</dc:source><cc:license rdf:resource="https://creativecommons.org/licenses/by/4.0/"/></cc:Work><cc:License rdf:about="https://creativecommons.org/licenses/by/4.0/"><cc:permits rdf:resource="https://creativecommons.org/ns#Reproduction"/><cc:permits rdf:resource="https://creativecommons.org/ns#Distribution"/><cc:permits rdf:resource="https://creativecommons.org/ns#DerivativeWorks"/><cc:requires rdf:resource="https://creativecommons.org/ns#Notice"/><cc:requires rdf:resource="https://creativecommons.org/ns#Attribution"/></cc:License></rdf:RDF></metadata><mask id="avatarsRadiusMask"><rect width="400" height="400" rx="0" ry="0" x="0" y="0" fill="#fff"/></mask><g mask="url(#avatarsRadiusMask)"><rect fill="rgba(242, 211, 177, 1)" width="400" height="400" x="0" y="0"/><g transform="translate(-279 -322)"><path d="M550.27 424.38c11.73-1.17 23.8.88 34.46 5.92 11.27 5.3 20.98 13.91 27.52 24.52 8.52 13.52 11.81 30.47 8.78 46.18-2.62 15.25-11.05 29.23-23.03 38.97-16.48 13.6-39.38 18.04-59.81 11.9-16.14-4.8-30.17-16.01-38.31-30.76-7.42-12.96-9.7-28.23-7.33-42.9 2.28-13.33 8.74-25.78 18.4-35.26 10.57-10.48 24.49-17.09 39.32-18.57Z" fill="#000"/><path d="M549.23 430.27c9.32-.98 18.71-.35 27.55 2.92 14.2 5.05 26.25 15.47 33.08 28.93 5.89 11.3 7.76 24.3 5.81 36.86-2.19 12.58-8.23 24.38-17.49 33.21-9.48 9.35-22.52 15.1-35.71 16.47-15.36 1.46-31.09-3.31-43.06-13.03-9.46-7.5-15.92-17.77-19.8-29.11-5.26-18.02-1.64-38.17 9.74-53.13 9.47-12.69 24.19-21.15 39.88-23.12Z" fill="#fff"/><path d="M521.23 467.28c7.31-1.89 15.52.27 20.87 5.62 6.09 5.72 8.42 15.06 5.6 22.95-3.49 11.19-16.53 17.96-27.64 14.08-11.45-3.35-18.17-16.09-14.6-27.48 2.25-7.54 8.22-13.11 15.77-15.17ZM332.97 478.46c14.43.75 28.78 1.53 43.05 3.91 21.13 3.42 42.86 8.97 62.12 18.47 2.85 1.6 2.45 3.29 1.6 6.06-2.42.05-4.41-.24-6.71-1.01-11.15-3.38-22.56-5.25-34.03-7.16-10.45-1.44-20.56-3.19-31-3.72-10.97-1.1-21.89-.72-32.98-.66-1.97-.1-5.02.62-6.6-.75-.76-2.14.78-4.69 1.32-6.78-.94-1.57-3.08-3.45-2.4-5.43.87-2.4 3.35-2.93 5.63-2.93Z" fill="#000"/></g><g transform="translate(-279 -322)"><g fill="#000"><path d="M397.06 373.14c6.81.19 14.18 2.86 17.93 8.88 1.05 1.45.63 3.68.72 5.4-6.29.15-12.49.33-18.64 1.83-15.06 3.48-29.35 10.86-41.64 20.15-8.37 6.38-16.34 14.1-21.95 23.07-1.43 2.22-2.41 5.03-4.29 6.89-1.24.26-2.57.28-3.83.35-.05-1.77-.23-3.46.21-5.19 5.72-20.86 19.83-39.34 38.12-50.81 9.83-5.84 21.73-11.05 33.37-10.57ZM578.52 411.66c10.41 1.67 21.2 3.85 30.01 9.97l-.21 4.78c-4.07 1.59-7.29-.15-11.31-.78-6.82-1.2-13.91-1.25-20.83-1.11-29.25 1.32-58.23 9.89-83.97 23.74-1.45.63-2.92 1.06-4.42 1.54-2.58-5.36-3.61-10.91-.13-16.17 5.13-7.67 15.2-12.39 23.63-15.44 21.34-7.36 44.88-9 67.23-6.53Z"/></g></g><g transform="translate(-279 -322)"><path d="M476.979 628.88c10.2-.52 20.43 4.48 27.46 11.67 5.06 5.1 8.39 11.32 10.89 18 .52 3.48 2.26 6.4-1.37 8.77-8.33.15-16.63.8-24.96 1-12.29.95-24.72.47-36.92 1.94-1.96-1.87-2.34-3.75-2.6-6.38-.98-8.6 1.23-17.86 6.72-24.66 5-6.28 12.77-10.08 20.78-10.34Z" fill="#000"/><path d="M484.479 635.49c12.63 3.09 22.12 13.94 25.51 26.24-18.28.41-36.54 1.67-54.78 2.21-.69-8.6 1.23-17 7.57-23.16 5.82-5.68 13.94-7.02 21.7-5.29Z" fill="#8F2E45"/></g><g transform="translate(-279 -322)"/></g></svg>